<?xml version="1.0" encoding="utf-8"?>
<!-- Generator: Adobe Illustrator 21.0.2, SVG Export Plug-In . SVG Version: 6.00 Build 0)  -->
<svg version="1.1" xmlns="http://www.w3.org/2000/svg" xmlns:xlink="http://www.w3.org/1999/xlink" x="0px" y="0px"
	 viewBox="0 0 1000 1000" style="enable-background:new 0 0 1000 1000;" xml:space="preserve">
<style type="text/css">
	.st0{fill:#5D4936;}
	.st1{fill:#C48C43;}
	.st2{fill:#EDDBC8;}
	.st3{opacity:6.000000e-02;fill:#040000;}
	.st4{display:none;fill:#7C4A21;}
	.st5{fill:#E7B37A;}
	.st6{fill:#3D2C1A;}
	.st7{fill:#F1B8BD;}
	.st8{fill:none;stroke:#E9848A;stroke-width:3;stroke-linecap:round;stroke-miterlimit:10;}
	.st9{fill:#040000;}
	.st10{fill:#6C513E;}
	.st11{fill:#FFFFFF;}
	.st12{fill:none;stroke:#EDDBC8;stroke-width:7;stroke-linecap:round;stroke-linejoin:round;stroke-miterlimit:10;}
	.st13{fill:none;stroke:#3D2C1A;stroke-width:3;stroke-linecap:round;stroke-miterlimit:10;}
	.st14{opacity:6.000000e-02;fill:#070404;}
	.st15{display:none;}
	.st16{display:inline;fill:none;stroke:#5E5827;stroke-width:4;stroke-miterlimit:10;}
	.st17{display:none;fill:none;stroke:#5D5727;stroke-width:4;stroke-miterlimit:10;}
	.st18{display:none;fill:none;stroke:#5E5827;stroke-width:4;stroke-miterlimit:10;}
	.st19{fill:none;stroke:#5E5827;stroke-width:4;stroke-miterlimit:10;}
	.st20{fill:none;stroke:#5D5727;stroke-width:2;stroke-miterlimit:10;}
	.st21{fill:none;stroke:#5D5727;stroke-width:2;stroke-linecap:round;stroke-linejoin:round;stroke-miterlimit:10;}
	.st22{fill:#1C3F97;}
	.st23{fill:#745A40;}
	.st24{display:none;fill:#5D4936;}
	.st25{fill:#806444;}
	.st26{fill:#27272F;stroke:#4E3A1F;stroke-width:2;stroke-linecap:round;stroke-miterlimit:10;}
	.st27{fill:#4E3A1F;}
	.st28{display:none;fill:#4E3A1F;}
	.st29{display:inline;}
	.st30{fill:#E5E6E7;}
	.st31{fill:#CFD1D2;}
	.st32{fill:#BBBCBE;}
	.st33{fill:#F1F1F0;}
	.st34{fill:#D9D9D9;}
	.st35{fill:#ECECEB;}
	.st36{fill:#F5F5F5;}
	.st37{fill:#5E5827;}
	.st38{fill:#AE9C5C;}
	.st39{fill:none;stroke:#5D5727;stroke-width:6;stroke-linecap:round;stroke-linejoin:round;stroke-miterlimit:10;}
	.st40{fill:none;stroke:#AE9C5C;stroke-width:6;stroke-linecap:round;stroke-linejoin:round;stroke-miterlimit:10;}
</style>
<g id="レイヤー_8">
	<g>
		<path class="st0" d="M314.8,416.6c0,0,10.2-23.9,52.2-18.2l14.8,12.5L314.8,416.6z"/>
	</g>
	<g>
		<path class="st0" d="M666.9,416.6c0,0-10.2-23.9-52.2-18.2l-14.8,12.5L666.9,416.6z"/>
	</g>
</g>
<g id="shiba_x5F_dog">
	<path class="st1" d="M410.2,468.9c0,0-20.4,59.1-56.8,127.2c0,0-56.8,122.7-34.1,179.5c22.7,56.8,77.2,61.3,168.1,61.3
		s127.2,15.9,170.4-47.7c0,0,86.3-40.9,100-122.7c13.6-81.8,20.4-118.1,20.4-118.1s-104.5,29.5-122.7,118.1
		c0,0-86.3-172.7-84.1-204.5c0,0-159.9-20.6-167.4-2.4c-7.5,18.3,0,0,0,0"/>
	<path class="st2" d="M406.6,790.6C406.5,790.6,406.5,790.6,406.6,790.6L406.6,790.6C406.5,790.6,406.5,790.6,406.6,790.6z"/>
	<path class="st2" d="M380.2,823.3c0,0.1,0.1,0.2,0.1,0.3c0,0-0.2,0-0.5,0C379.9,823.4,380,823.4,380.2,823.3z"/>
	<path class="st2" d="M405.3,813.5c0.1,0.1,0.2,0.2,0.2,0.4c-0.5,0-1.1,0-1.6,0C404.3,813.8,404.8,813.7,405.3,813.5z"/>
	<path class="st2" d="M407,813.9c-0.6,0.7-1,0.8-1.3,0.2c0-0.1-0.1-0.2-0.2-0.2H407z"/>
	<path class="st2" d="M574.1,739.2c0,0-34.1-22.7-75,0l2.3,90.9c0,0-3.4,14.8,55.7,14.8s75-13.6,15.9-31.8L574.1,739.2z"/>
	<path class="st2" d="M590.1,668.8c0,0-15.5,29.1-95.9,29.5h-1.8c-80.3-0.4-95.9-29.5-95.9-29.5c-9.8-11.1-12.1-31.9-10.4-56
		c0.1-1.1,0.2-2.2,0.2-3.3c-5.3,0.3-12.6,11.5-12.6,11.5c0-10,11.5-23.8,14.3-26.9c0.4-0.5,0.6-0.7,0.6-0.7
		c-0.2-0.1-0.3-0.1-0.5-0.2c-6.2-1.7-25.8,11.9-25.8,11.9c0-5.2,20.4-27.3,29.1-31.9c0.3-0.2,0.5-0.5,0.8-0.7
		c-0.2-0.1-0.4-0.1-0.6-0.2c-6.1-1.2-9.5,3.7-9.9,4.3c4.3-10.7,11.4-14.8,12.1-15.3c0,0,0.1,0,0.1,0H394
		c-8.2,0.6-21.2,10.8-21.2,10.8c0-12.1,22-33.3,27.1-38c-4,3.1-11.2,1.6-11.2,1.6c5.2,0,13.3-13.9,17.1-20.7
		c1.2-2.2,1.9-3.7,1.9-3.7c-0.3,0-0.6,0-0.9,0.1c-8.1,1.2-18.1,10.6-18.1,10.6c2-9.7,23.7-39.4,29.9-47.8c0.8-1,1.3-1.7,1.5-2l0.1,0
		l72.3-7.9l0.9-0.1l0.9,0.1l73.2,8C567.5,472.6,624.2,630.2,590.1,668.8z"/>
	<path class="st2" d="M394,561.4C394,561.4,394,561.4,394,561.4C394,561.4,394,561.4,394,561.4L394,561.4z"/>
	<path class="st2" d="M388.7,593.5c0,0-0.2,0.2-0.6,0.7c0-0.3,0.1-0.6,0.1-0.8C388.4,593.3,388.6,593.4,388.7,593.5z"/>
	<path class="st2" d="M407.6,511.5c0,0-0.7,1.5-1.9,3.7c0.3-1.2,0.7-2.4,1-3.5C407,511.6,407.3,511.6,407.6,511.5z"/>
	<path class="st2" d="M420.1,472.5c-0.2,0.3-0.7,1-1.5,2c0.4-1.3,0.7-1.9,0.7-1.9L420.1,472.5z"/>
	<path class="st2" d="M420.2,472.3c0,0,0,0,0,0.2l-0.1,0C420.1,472.4,420.2,472.3,420.2,472.3z"/>
	<path class="st3" d="M426.1,584.7c0-44.5,15.5-85.4,41.2-117.4l-47.2,5.2l-0.1,0c-0.2,0.3-0.7,1-1.5,2c-6.2,8.3-27.9,38-29.9,47.8
		c0,0,10-9.4,18.1-10.6c0.3-0.1,0.6-0.1,0.9-0.1c0,0-0.7,1.5-1.9,3.7c-3.7,6.8-11.9,20.7-17.1,20.7c0,0,7.1,1.4,11.2-1.6
		c-5,4.7-27.1,25.9-27.1,38c0,0,13-10.2,21.2-10.8h0.1c0,0,0,0-0.1,0c-0.8,0.5-7.8,4.6-12.1,15.3c0.4-0.6,3.8-5.6,9.9-4.3
		c0-0.1,0-0.4-0.1-0.7l-0.1-0.7c0-0.2,0.1,0.3,0.1,0.7l0.1,0.7c0.2,0,0.4,0.1,0.6,0.2c-0.2,0.2-0.4,0.5-0.8,0.7
		c-8.6,4.7-29.1,26.7-29.1,31.9c0,0,19.6-13.6,25.8-11.9c0.2,0,0.3,0.1,0.5,0.2c0,0-0.2,0.2-0.6,0.7c-2.8,3.2-14.3,16.9-14.3,26.9
		c0,0,7.3-11.2,12.6-11.5c-0.1,1.1-0.2,2.2-0.2,3.3c-1.7,24.1,0.6,44.9,10.4,56c0,0,11.6,21.7,66.5,27.9
		C439.9,665.5,426.1,626.7,426.1,584.7z"/>
	<path class="st2" d="M407,813.9c-0.6,0.7-1,0.8-1.3,0.2c0-0.1-0.1-0.2-0.2-0.2H407z"/>
	<path class="st2" d="M407,813.9c-0.6,0.7-1,0.8-1.3,0.2c0-0.1-0.1-0.2-0.2-0.2H407z"/>
	<path class="st3" d="M406.6,790.6C406.5,790.6,406.5,790.6,406.6,790.6L406.6,790.6C406.5,790.6,406.5,790.6,406.6,790.6z"/>
	<path class="st3" d="M380.2,823.3c0,0.1,0.1,0.2,0.1,0.3c0,0-0.2,0-0.5,0C379.9,823.4,380,823.4,380.2,823.3z"/>
	<path class="st3" d="M405.3,813.5c0.1,0.1,0.2,0.2,0.2,0.4c-0.5,0-1.1,0-1.6,0C404.3,813.8,404.8,813.7,405.3,813.5z"/>
	<path class="st3" d="M407,813.9c-0.6,0.7-1,0.8-1.3,0.2c0-0.1-0.1-0.2-0.2-0.2H407z"/>
	<path class="st3" d="M407,813.9c-0.6,0.7-1,0.8-1.3,0.2c0-0.1-0.1-0.2-0.2-0.2H407z"/>
	<path class="st3" d="M407,813.9c-0.6,0.7-1,0.8-1.3,0.2c0-0.1-0.1-0.2-0.2-0.2H407z"/>
	<g>
		<path class="st2" d="M478.4,898.2c0,0,3.4,14.8-55.7,14.8c-19,0-33.6-1.4-42.5-3.9c-7.3-1-15.4,0.5-15.4,0.5c0-1.3,2.9-4,5.1-5.7
			c-3.5,0.5-9.6-1.1-9.6-1.1c4.5,0,10.9-4.8,10.9-4.8c-2.8-2.5-15.4,0.3-15.4,0.3c4.1-8.2,20.9-6.9,24-6.5c0.3,0,0.5,0,0.5,0
			c0-0.1,0-0.2-0.1-0.3c-1-3.9-15.4-2.3-15.4-2.3c8.5-5.7,26.6-6.9,39.1-7c0.5,0,1.1,0,1.6,0c0.1,0.1,0.1,0.2,0.2,0.2
			c0.3,0.6,0.7,0.4,1.3-0.2h-1.5c-0.1-0.2-0.1-0.3-0.2-0.4c-2.6-3.7-8.7-1.6-8.7-1.6l9.7-7.4c-8.5-2.8-18.8,7.4-18.8,7.4
			c0-8.6,17.1-20.1,19-21.3c0,0,0.1,0,0.1-0.1c0,0-0.1,0-0.1,0c-5.8,3.4-9.9-1.4-9.9-1.4c4.5,0,9.4-15.7,9.4-15.7
			c-4.2,0.1-11.7,8.9-11.7,8.9c-2.2-11.1,10.9-22.9,11.7-23.5c-8.7-3.1-20.7,12.2-20.7,12.2c0-18.2,20.4-31.8,20.4-31.8
			s34.1-22.7,75,0L478.4,898.2z"/>
		<path class="st2" d="M501.1,898.2c0,0-3.4,14.8,55.7,14.8c19,0,33.6-1.4,42.5-3.9c7.3-1,15.4,0.5,15.4,0.5c0-1.3-2.9-4-5.1-5.7
			c3.5,0.5,9.6-1.1,9.6-1.1c-4.5,0-10.9-4.8-10.9-4.8c2.8-2.5,15.4,0.3,15.4,0.3c-4.1-8.2-20.9-6.9-24-6.5c-0.3,0-0.5,0-0.5,0
			c0-0.1,0-0.2,0.1-0.3c1-3.9,15.4-2.3,15.4-2.3c-8.5-5.7-26.6-6.9-39.1-7c-0.5,0-1.1,0-1.6,0c-0.1,0.1-0.1,0.2-0.2,0.2
			c-0.3,0.6-0.7,0.4-1.3-0.2h1.5c0.1-0.2,0.1-0.3,0.2-0.4c2.6-3.7,8.7-1.6,8.7-1.6l-9.7-7.4c8.5-2.8,18.8,7.4,18.8,7.4
			c0-8.6-17.1-20.1-19-21.3c0,0-0.1,0-0.1-0.1c0,0,0.1,0,0.1,0c5.8,3.4,9.9-1.4,9.9-1.4c-4.5,0-9.4-15.7-9.4-15.7
			c4.2,0.1,11.7,8.9,11.7,8.9c2.2-11.1-10.9-22.9-11.7-23.5c8.7-3.1,20.7,12.2,20.7,12.2c0-18.2-20.4-31.8-20.4-31.8
			s-34.1-22.7-75,0L501.1,898.2z"/>
		<path class="st3" d="M421.6,882.3c0-31,7.8-60,21.3-85.1c-22.1,0.1-37.2,10.1-37.2,10.1s-20.4,13.6-20.4,31.8
			c0,0,12-15.3,20.7-12.2c-0.7,0.6-13.9,12.5-11.7,23.5c0,0,7.5-8.8,11.7-8.9c0,0-4.9,15.7-9.4,15.7c0,0,4.1,4.9,9.9,1.4
			c0,0,0.1,0,0.1,0c0,0,0,0-0.1,0.1c-1.8,1.2-19,12.7-19,21.3c0,0,10.4-10.2,18.8-7.4l-9.7,7.4c0,0,6.1-2,8.7,1.6
			c0.1,0.1,0.2,0.2,0.2,0.4h1.5c-0.6,0.7-1,0.8-1.3,0.2c0-0.1-0.1-0.2-0.2-0.2c-0.5,0-1.1,0-1.6,0c-12.5,0.1-30.6,1.4-39.1,7
			c0,0,14.3-1.6,15.4,2.3c0,0.1,0.1,0.2,0.1,0.3c0,0-0.2,0-0.5,0c-3.1-0.3-19.9-1.7-24,6.5c0,0,12.6-2.8,15.4-0.3
			c0,0-6.3,4.8-10.9,4.8c0,0,6.1,1.6,9.6,1.1c-2.2,1.7-5.1,4.4-5.1,5.7c0,0,8-1.5,15.4-0.5c9,2.5,23.5,3.9,42.5,3.9c0.5,0,1,0,1.5,0
			C422.5,903,421.6,892.8,421.6,882.3z"/>
	</g>
	<path class="st2" d="M687.1,618.7c4.9,13.7,22.6,27.4,35.6,27.4c19.1,0,39.8-18.2,48.8-36.3c27.2-51.5,61.7-45.8,63.5-45.5
		l-15.8-4.5c15.2-1.4,23-14.1,23-14.1c-14.4,5.2-54.6,1.4-54.6,1.4c10.5-2.5,12.2-11.2,12.2-11.2c-9.1,6.8-20.9,6.1-20.9,6.1
		c1.5-5,7.2-6.1,7.2-6.1c-15.9-4.5-32.3,6.3-32.3,6.3c-0.5-2.8,2.7-10.8,2.7-10.8C739.8,538.8,703.3,566.6,687.1,618.7z"/>
	<g>
		<g>
			<path class="st1" d="M491.1,487.5c-9.4,0-166.4-138.4-166.4-138.4s15.5-39.1,31-68.8c0,0,0,0,0,0c16.4-31.5,37.5-64.4,59.4-79.4
				c0,0,0.1,0,0.1-0.1h151.9c43.2,29.4,90.8,147,90.8,147S500.7,487.5,491.1,487.5z"/>
		</g>
		<path class="st1" d="M371.4,156.1c-5-3.7-12.5-8.8-18.6-6.3c-5.8,2.4-7.8,10.3-8.9,16.2c-5.7,29.9,0,61.1,1,66.5
			c6.2,32.7,9.6,50.6,23.7,67.6c8.8,10.5,18.2,16.6,24.8,20l53.3-22.1c2.1-7.1,4.6-18.4,2.9-32.5c-2.4-20.6-30.5-60.5-30.5-60.5
			S399.5,176.8,371.4,156.1z"/>
		<path class="st1" d="M608.8,156.1c5-3.7,12.5-8.8,18.6-6.3c5.8,2.4,7.8,10.3,8.9,16.2c5.7,29.9,0,61.1-1,66.5
			c-6.2,32.7-9.6,50.6-23.7,67.6c-8.8,10.5-18.2,16.6-24.8,20l-53.3-22.1c-2.1-7.1-4.6-18.4-2.9-32.5c2.4-20.6,12.1-34.3,30.5-60.5
			C561,204.8,580.7,176.8,608.8,156.1z"/>
	</g>
	<g>
		<g>
			<path class="st1" d="M657.9,347.8c0,0-157.2,139.7-166.7,139.7c-9.4,0-166.4-138.4-166.4-138.4s15.5-39.1,31-68.8c0,0,0,0,0,0
				c0.2-0.4,0.4-0.8,0.6-1.2c16.3-31.1,37.1-63.4,58.8-78.3c0,0,0.1,0,0.1-0.1h151.9c19.9,13.6,40.8,45.8,57.5,76.7
				C644,313.6,657.9,347.8,657.9,347.8z"/>
		</g>
		<path class="st1" d="M416.2,200.8h-1.1c0,0-0.1,0-0.1,0.1c-21.6,14.8-42.4,47.1-58.8,78.3c-4.8-12.1-7.6-26.6-11.4-46.8
			c-1-5.4-6.7-36.5-1-66.5c1.1-5.8,3.1-13.8,8.9-16.2c6.1-2.5,13.6,2.6,18.6,6.3C393.1,172,409.7,192.4,416.2,200.8z"/>
		<g>
			<path class="st4" d="M413.9,210.5H413c0,0-0.1,0-0.1,0.1c-18.3,12.5-35.9,39.9-49.8,66.3c-4.1-10.3-6.4-22.6-9.6-39.6
				c-0.9-4.6-5.7-30.9-0.8-56.3c0.9-4.9,2.6-11.7,7.5-13.7c5.2-2.1,11.5,2.2,15.7,5.3C394.2,186.2,408.4,203.4,413.9,210.5z"/>
			<path class="st5" d="M407.9,219h-0.6c0,0,0,0-0.1,0c-12.7,8.7-24.8,27.6-34.4,45.8c-2.8-7.1-4.4-15.6-6.7-27.4
				c-0.6-3.1-3.9-21.4-0.6-38.9c0.7-3.4,1.8-8.1,5.2-9.4c3.6-1.4,7.9,1.5,10.9,3.7C394.3,202.2,404.1,214,407.9,219z"/>
		</g>
		<path class="st1" d="M446.7,297.8l-53.3,22.1c-6.5-3.4-16-9.5-24.8-20c-5.5-6.5-9.3-13.2-12.3-20.8c16.3-31.1,37.1-63.4,58.8-78.3
			c0,0,0.1,0,0.1-0.1h1.1c1.9,2.5,3,4,3,4s28.1,39.9,30.5,60.5C451.3,279.4,448.9,290.8,446.7,297.8z"/>
		<path class="st1" d="M635.3,232.4c-3.6,19.2-6.3,33.3-10.8,45.1c-16.7-30.9-37.5-63.1-57.5-76.7h-3.1c6.5-8.5,23.2-28.8,44.8-44.8
			c5-3.7,12.4-8.8,18.6-6.3c5.8,2.4,7.8,10.3,8.9,16.2C641.9,195.8,636.3,227,635.3,232.4z"/>
		<g>
			<path class="st4" d="M566.3,210.5h0.9c0,0,0.1,0,0.1,0.1c18.3,12.5,35.9,39.9,49.8,66.3c4.1-10.3,6.4-22.6,9.6-39.6
				c0.9-4.6,5.7-30.9,0.8-56.3c-0.9-4.9-2.6-11.7-7.5-13.7c-5.2-2.1-11.5,2.2-15.7,5.3C586,186.2,571.8,203.4,566.3,210.5z"/>
			<path class="st5" d="M572.3,219h0.6c0,0,0,0,0.1,0c12.7,8.7,24.8,27.6,34.4,45.8c2.8-7.1,4.4-15.6,6.7-27.4
				c0.6-3.1,3.9-21.4,0.6-38.9c-0.7-3.4-1.8-8.1-5.2-9.4c-3.6-1.4-7.9,1.5-10.9,3.7C585.9,202.2,576.1,214,572.3,219z"/>
		</g>
		<path class="st1" d="M624.5,277.5c-3.1,8.3-7.1,15.5-13,22.5c-8.8,10.5-18.2,16.5-24.8,20l-53.3-22.1c-2.1-7.1-4.6-18.4-2.9-32.5
			c2.4-20.6,12.1-34.3,30.5-60.5c0,0,1-1.5,3-4h3.1C587,214.4,607.8,246.7,624.5,277.5z"/>
	</g>
	<path class="st2" d="M491.5,489.6c-135.8,0.2-167.6-138.8-166.4-140.7c16.6-19.8,38.1-34.3,55.3-36.8h0c8-1.2,15,0.2,20.3,4.8
		c0.8,0.7,1.5,1.4,2.2,2.2c32.6,38.6,54.1,31.8,67.5,22.2c13.7-9.8,18.9-22.4,18.9,7.4c0,3.1,0.2,6.4,0.5,9.9v0
		c0.3,3.7,0.9,7.5,1.5,11.5c0.7-4,1.2-7.8,1.5-11.5c0.3-3.5,0.5-6.9,0.5-10c0-30,5.3-17,19.1-7.2c13.4,9.5,34.8,16,67.2-22.4
		c15.3-18.1,78.2,29.3,78.2,29.3S628.3,489.3,491.5,489.6z"/>
	<path class="st6" d="M496.8,360.8l28-33.9c3.4-4.1,0.5-10.2-4.8-10.2h-56c-5.3,0-8.2,6.2-4.8,10.2l28,33.9
		C489.7,363.8,494.3,363.8,496.8,360.8z"/>
	<g>
		<g>
			<path class="st6" d="M596.9,365.4c0,0,1.9,1,1.7,2c-3.4,24.5-60.2,60.8-106.6,60.8c-47.7,0-109-38.2-109-62.8l1.2,0
				c0.9,18,45,40.1,67,34.7c20.4-5.1,36.5-20.2,40.9-35.1c4.4,14.9,27.8,32.8,47.7,32.8c22,0,52.4-14,55.5-31"/>
		</g>
		<path class="st7" d="M496,368c-1.3-0.2-2.7-0.4-4-0.4c-1.4,0-2.7,0.1-4,0.4c1.8,8.7-16.4,22.4-21,24.6v27.3c0,13.8,11.2,25,25,25
			s25-11.2,25-25v-27.3C517,392.7,496.5,376.8,496,368z"/>
		<line class="st8" x1="492" y1="367.7" x2="492" y2="426.7"/>
	</g>
	<g>
		<path class="st9" d="M462.5,296.2c0,0-10.4,11.4-20.4,11.4S423.8,294,423.8,294s8.1-13.6,18.2-13.6S462.5,296.2,462.5,296.2z"/>
		<path class="st10" d="M443.2,305.3c-0.4,0-0.7,0-1.1,0c-7.5,0-13.6-5.1-13.6-11.4c0-6.3,6.1-11.4,13.6-11.4c0.4,0,0.8,0,1.1,0
			c-7,0.5-12.5,5.4-12.5,11.3S436.2,304.8,443.2,305.3z"/>
		<ellipse transform="matrix(0.2085 -0.978 0.978 0.2085 70.2538 664.7576)" class="st11" cx="445.8" cy="289" rx="6" ry="6.7"/>
	</g>
	<g>
		<path class="st9" d="M521.5,296.2c0,0,10.4,11.4,20.4,11.4c10,0,18.2-13.6,18.2-13.6s-8.1-13.6-18.2-13.6
			C531.9,280.3,521.5,296.2,521.5,296.2z"/>
		<path class="st10" d="M539.7,305.3c0.4,0,0.7,0,1.1,0c7.5,0,13.6-5.1,13.6-11.4c0-6.3-6.1-11.4-13.6-11.4c-0.4,0-0.8,0-1.1,0
			c7,0.5,12.5,5.4,12.5,11.3S546.7,304.8,539.7,305.3z"/>
		<ellipse transform="matrix(0.2085 -0.978 0.978 0.2085 143.9746 755.8514)" class="st11" cx="539" cy="289" rx="6" ry="6.7"/>
	</g>
	<line class="st12" x1="454.6" y1="252.6" x2="440.8" y2="253.5"/>
	<line class="st12" x1="529.4" y1="252.6" x2="543.2" y2="253.5"/>
	<path class="st13" d="M599.9,356.4c0,23.8-23.9,43.2-53.4,43.2c-29.5,0-53.4-19.3-53.4-43.2"/>
	<path class="st13" d="M490.9,356.4c0,23.8-23.9,43.2-53.4,43.2c-29.5,0-53.4-19.3-53.4-43.2"/>
	<path class="st14" d="M380.7,281.5c0-36.4,5.8-71.2,16.3-102.9c-7.2-7.4-15.9-15.4-25.5-22.5c-5-3.7-12.4-8.8-18.6-6.3
		c-5.8,2.4-7.8,10.3-8.9,16.2c-5.7,29.9,0,61.1,1,66.5c3.8,20.1,6.5,34.6,11.4,46.8c-0.2,0.4-0.4,0.8-0.6,1.2c0,0,0,0,0,0
		c-15.4,29.7-31,68.8-31,68.8s0.1,0.1,0.4,0.3c0.7,8.4,28.3,116.2,130.9,136.8C409.9,436.8,380.7,363.4,380.7,281.5z"/>
</g>
<g id="glasses1" class="st15">
	<circle class="st16" cx="458.5" cy="410.5" r="14.5"/>
	<circle class="st16" cx="503.5" cy="410.5" r="14.5"/>
</g>
<g id="glasses1のコピー">
	<line class="st17" x1="473" y1="410" x2="489" y2="410"/>
	<circle class="st18" cx="460" cy="409" r="12"/>
	<circle class="st19" cx="543.1" cy="297.4" r="32.9"/>
	<circle class="st20" cx="581.6" cy="298.5" r="2.3"/>
	<line class="st21" x1="581.6" y1="300.8" x2="581.6" y2="375.7"/>
</g>
<g id="clothes">
	<g>
		<path class="st22" d="M666.9,391.6"/>
		<path class="st23" d="M665.8,831.2V533.6c0,0-4.5-59.1-86.3-81.8l-88.6,65.9v331.7C490.9,849.4,613.5,851.7,665.8,831.2z"/>
		<path class="st24" d="M662.4,493.9c0,0-22.7-52.2-84.1-50l-5.7,14.8c0,0,45.4,2.3,75,52.2L662.4,493.9z"/>
		<polygon class="st25" points="666.9,416.6 599.9,410.9 489.7,518.9 570.4,483.6 		"/>
		<polygon class="st25" points="550.8,458.9 598.8,478.5 489.7,518.9 		"/>
		<line class="st26" x1="619.2" y1="521.1" x2="619.2" y2="580.2"/>
		
			<ellipse transform="matrix(0.1754 -0.9845 0.9845 0.1754 -105.2225 937.0759)" class="st27" cx="506.8" cy="531.3" rx="10.2" ry="10.2"/>
		<path class="st22" d="M314.8,391.6"/>
		<path class="st23" d="M315.9,831.2V533.6c0,0,4.5-59.1,86.3-81.8l88.6,65.9v331.7C490.9,849.4,368.2,851.7,315.9,831.2z"/>
		<path class="st24" d="M319.3,493.9c0,0,22.7-52.2,84.1-50l5.7,14.8c0,0-45.4,2.3-75,52.2L319.3,493.9z"/>
		<polygon class="st25" points="314.8,416.6 381.8,410.9 492,518.9 411.4,483.6 		"/>
		<polygon class="st25" points="430.9,458.9 383,478.5 492,518.9 		"/>
		<line class="st26" x1="362.5" y1="521.1" x2="362.5" y2="580.2"/>
		
			<ellipse transform="matrix(0.9845 -0.1754 0.1754 0.9845 -85.8241 91.5312)" class="st28" cx="475" cy="531.3" rx="10.2" ry="10.2"/>
	</g>
</g>
<g id="newspaper" class="st15">
	<g class="st29">
		<g>
			<g>
				<path class="st30" d="M480.3,635c-32.8-8.1-66.7-9-99.4,0c-16.8-44-33.6-87.9-50.4-131.9c49.5-8.9,100.2-8.4,149.7,0
					C480.3,547.1,480.3,591,480.3,635z"/>
				<g>
					<path class="st31" d="M406.7,553.8c-16.1,0.7-31.9,2.4-47.7,5.3c-6.4-17.7-12.8-35.3-19.1-53c18.4-2.9,36.8-4.6,55.4-5.3
						C399.1,518.5,402.9,536.1,406.7,553.8z"/>
					<path class="st32" d="M406.7,553.8c-16.1,0.7-31.9,2.4-47.7,5.3c-1.5-4.1-2.2-6.1-3.7-10.1c16.3-2.9,32.6-4.6,49.2-5.3
						C405.4,547.7,405.8,549.8,406.7,553.8z"/>
					<path class="st32" d="M472.5,526.3c-22.7-3.6-45.3-5.3-68.3-5.4c-1.4-6.7-2.7-13.5-4.1-20.2c24.2,0.1,48.1,1.8,72,5.4
						C472.2,512.8,472.4,519.6,472.5,526.3z"/>
					<g>
						<path class="st31" d="M436.9,523.8c-8.7-0.6-17.4-0.9-26.2-1c0.1,0.7,0.2,1,0.3,1.6c8.7,0.1,17.4,0.4,26.1,1
							C437.1,524.8,437,524.5,436.9,523.8z"/>
						<path class="st31" d="M437.2,526.3c-10.7-0.6-21.4-1-32.1-1c0.1,0.7,0.2,1,0.3,1.6c10.7,0,21.3,0.4,32,1
							C437.3,527.2,437.3,526.9,437.2,526.3z"/>
						<path class="st31" d="M434.9,528.5c-9.8-0.5-19.5-0.8-29.3-0.8c0.1,0.7,0.2,1,0.3,1.6c9.7,0,19.5,0.3,29.2,0.8
							C435,529.5,435,529.2,434.9,528.5z"/>
						<path class="st31" d="M437.8,531.1c-10.6-0.6-21.1-1-31.7-1c0.1,0.7,0.2,1,0.3,1.6c10.5,0,21,0.4,31.6,1
							C437.9,532.1,437.9,531.8,437.8,531.1z"/>
						<path class="st31" d="M437.5,533.5c-10.3-0.6-20.6-0.9-30.9-1c0.1,0.7,0.2,1,0.3,1.6c10.3,0,20.5,0.3,30.8,1
							C437.6,534.5,437.6,534.2,437.5,533.5z"/>
						<path class="st31" d="M438.4,536c-10.4-0.6-20.8-1-31.3-1c0.1,0.7,0.2,1,0.3,1.6c10.4,0,20.8,0.4,31.2,1
							C438.5,537,438.4,536.7,438.4,536z"/>
						<path class="st31" d="M433.8,538.1c-8.8-0.4-17.5-0.7-26.3-0.7c0.1,0.7,0.2,1,0.3,1.6c8.7,0,17.4,0.2,26.2,0.7
							C434,539.1,433.9,538.8,433.8,538.1z"/>
						<path class="st31" d="M438.9,540.9c-10.3-0.6-20.6-1-30.9-1c0.1,0.7,0.2,1,0.3,1.6c10.3,0,20.5,0.4,30.7,1
							C439.1,541.9,439,541.6,438.9,540.9z"/>
						<path class="st31" d="M437.5,543.2c-9.7-0.6-19.3-0.9-29-0.9c0.1,0.7,0.2,1,0.3,1.6c9.6,0,19.2,0.2,28.9,0.9
							C437.7,544.2,437.6,543.9,437.5,543.2z"/>
						<path class="st31" d="M439.5,545.8c-10.2-0.6-20.3-1-30.4-1c0.1,0.7,0.2,1,0.3,1.6c10.1,0,20.2,0.4,30.3,1
							C439.6,546.8,439.6,546.5,439.5,545.8z"/>
						<path class="st31" d="M436.5,548c-9-0.5-17.9-0.7-26.9-0.8c0.1,0.7,0.2,1,0.3,1.6c9,0,17.9,0.3,26.8,0.8
							C436.6,549,436.6,548.7,436.5,548z"/>
						<path class="st31" d="M440.1,550.7c-10-0.6-20-1-30-1c0.1,0.7,0.2,1,0.3,1.6c10,0,19.9,0.4,29.9,1
							C440.2,551.7,440.2,551.3,440.1,550.7z"/>
						<path class="st31" d="M433.7,552.6c-7.7-0.4-15.4-0.6-23.2-0.5c0.1,0.7,0.2,1,0.3,1.6c7.7,0,15.4,0.1,23.1,0.5
							C433.8,553.6,433.8,553.3,433.7,552.6z"/>
					</g>
					<g>
						<path class="st31" d="M472.2,528.2c-8.5-1.5-17.1-2.6-25.8-3.5c0.1,0.7,0.1,1,0.2,1.6c8.6,0.9,17.2,2,25.7,3.5
							C472.2,529.1,472.2,528.8,472.2,528.2z"/>
						<path class="st31" d="M472.3,530.6c-10.5-1.7-21.1-3-31.7-4.1c0.1,0.7,0.1,1,0.2,1.6c10.6,1,21.1,2.4,31.6,4.1
							C472.3,531.6,472.3,531.3,472.3,530.6z"/>
						<path class="st31" d="M469.8,532.6c-9.6-1.5-19.3-2.7-29-3.6c0.1,0.7,0.1,1,0.2,1.6c9.7,1,19.3,2.2,28.9,3.6
							C469.8,533.6,469.8,533.3,469.8,532.6z"/>
						<path class="st31" d="M472.4,535.5c-10.4-1.7-20.8-3-31.3-4.1c0.1,0.7,0.1,1,0.2,1.6c10.5,1.1,20.8,2.4,31.2,4.1
							C472.4,536.5,472.4,536.1,472.4,535.5z"/>
						<path class="st31" d="M471.9,537.8c-10.1-1.6-20.3-2.9-30.5-4c0.1,0.7,0.1,1,0.2,1.6c10.2,1,20.3,2.3,30.4,4
							C471.9,538.8,471.9,538.5,471.9,537.8z"/>
						<path class="st31" d="M472.5,540.4c-10.3-1.7-20.5-3-30.9-4.1c0.1,0.7,0.1,1,0.2,1.6c10.3,1.1,20.5,2.4,30.8,4.1
							C472.5,541.3,472.5,541,472.5,540.4z"/>
						<path class="st31" d="M467.9,542c-8.6-1.3-17.3-2.4-26-3.3c0.1,0.7,0.1,1,0.2,1.6c8.7,0.9,17.3,2,25.9,3.3
							C467.9,543,467.9,542.7,467.9,542z"/>
						<path class="st31" d="M472.6,545.3c-10.1-1.7-20.3-3-30.5-4.1c0.1,0.7,0.1,1,0.2,1.6c10.2,1.1,20.3,2.4,30.3,4.1
							C472.6,546.2,472.6,545.9,472.6,545.3z"/>
						<path class="st31" d="M471,547.4c-9.5-1.6-19-2.9-28.6-3.8c0.1,0.7,0.1,1,0.2,1.6c9.6,0.9,19,2.2,28.5,3.8
							C471,548.4,471,548.1,471,547.4z"/>
						<path class="st31" d="M472.7,550.1c-10-1.7-20-3-30.1-4.1c0.1,0.7,0.1,1,0.2,1.6c10,1.1,20,2.4,29.9,4.1
							C472.7,551.1,472.7,550.8,472.7,550.1z"/>
						<path class="st31" d="M469.5,552c-8.9-1.4-17.7-2.6-26.6-3.5c0.1,0.7,0.1,1,0.2,1.6c8.9,0.9,17.7,2.1,26.5,3.5
							C469.6,553,469.6,552.7,469.5,552z"/>
						<path class="st31" d="M472.8,555c-9.8-1.7-19.7-3-29.6-4.1c0.1,0.7,0.1,1,0.2,1.6c9.9,1.1,19.7,2.4,29.5,4.1
							C472.8,556,472.8,555.7,472.8,555z"/>
						<path class="st31" d="M466.4,556.3c-7.6-1.2-15.3-2.2-23-2.9c0.1,0.7,0.1,1,0.2,1.6c7.7,0.8,15.3,1.7,22.9,2.9
							C466.4,557.3,466.4,556.9,466.4,556.3z"/>
					</g>
					<path class="st32" d="M473.2,573.3c-36.2-6.4-72.9-6.8-109.1,0.1c-0.2-0.6-0.3-0.9-0.5-1.4c36.3-6.9,73.2-6.4,109.6-0.1
						C473.2,572.5,473.2,572.7,473.2,573.3z"/>
					<path class="st32" d="M472.9,561c-12.3-2.1-24.6-3.7-37.1-4.7c0.4,3.4,0.7,5.1,1.1,8.5c12.2,1,24.2,2.6,36.1,4.7
						C473,566.1,473,564.4,472.9,561z"/>
					<path class="st32" d="M473.2,575.1c-11.8-2.1-23.6-3.7-35.5-4.7c1.1,8.6,2.3,17.2,3.4,25.8c11,1,21.9,2.6,32.7,4.7
						C473.6,592.3,473.4,583.7,473.2,575.1z"/>
					<path class="st31" d="M433.8,556.2c-25-1-49.6,0.4-74.2,4.9c1.2,3.4,1.8,5.1,3.1,8.5c23.9-4.5,47.9-5.9,72.3-4.9
						C434.5,561.3,434.3,559.6,433.8,556.2z"/>
					<g>
						<path class="st31" d="M398.7,570.4c-10.1,0.9-20,2.2-29.9,3.9c0.3,0.8,0.4,1.2,0.7,2c9.9-1.7,19.7-3,29.7-3.9
							C399,571.6,398.9,571.2,398.7,570.4z"/>
						<path class="st31" d="M399.4,573.4c-11.3,1-22.5,2.6-33.6,4.8c0.3,0.8,0.4,1.2,0.7,2c11.1-2.2,22.1-3.7,33.4-4.8
							C399.7,574.6,399.6,574.2,399.4,573.4z"/>
						<path class="st31" d="M400.2,576.4c-11.2,1-22.3,2.6-33.3,4.8c0.3,0.8,0.4,1.2,0.7,2c11-2.2,21.9-3.7,33.1-4.8
							C400.5,577.6,400.4,577.2,400.2,576.4z"/>
						<path class="st31" d="M400.9,579.4c-11.1,1-22,2.6-33,4.8c0.3,0.8,0.4,1.2,0.7,2c10.8-2.2,21.7-3.7,32.7-4.8
							C401.2,580.5,401.1,580.1,400.9,579.4z"/>
						<path class="st31" d="M401.7,582.3c-11,1-21.8,2.6-32.6,4.8c0.3,0.8,0.4,1.2,0.7,2c10.7-2.2,21.5-3.7,32.4-4.8
							C402,583.5,401.9,583.1,401.7,582.3z"/>
						<path class="st31" d="M402.4,585.3c-10.9,1-21.6,2.6-32.3,4.8c0.3,0.8,0.4,1.2,0.7,2c10.6-2.2,21.3-3.7,32.1-4.8
							C402.7,586.5,402.6,586.1,402.4,585.3z"/>
						<path class="st31" d="M403.2,588.3c-10.8,1-21.4,2.6-32,4.8c0.3,0.8,0.4,1.2,0.7,2c10.5-2.2,21-3.7,31.8-4.8
							C403.5,589.5,403.4,589.1,403.2,588.3z"/>
						<path class="st31" d="M403.9,591.3c-10.7,1-21.2,2.6-31.7,4.8c0.3,0.8,0.4,1.2,0.7,2c10.4-2.3,20.8-3.7,31.4-4.8
							C404.2,592.5,404.1,592.1,403.9,591.3z"/>
						<path class="st31" d="M398,594.9c-8.3,1.1-16.5,2.4-24.6,4.1c0.3,0.8,0.4,1.2,0.7,2c8.1-1.7,16.2-3.1,24.4-4.1
							C398.3,596.1,398.2,595.7,398,594.9z"/>
						<path class="st31" d="M436,570.3c-10.5-0.5-21-0.5-31.6-0.2c0.2,0.8,0.3,1.2,0.5,2c10.5-0.3,20.9-0.2,31.4,0.2
							C436.2,571.5,436.1,571.1,436,570.3z"/>
						<path class="st31" d="M436.4,573.3c-11.9-0.5-23.7-0.5-35.6,0c0.2,0.8,0.3,1.2,0.5,2c11.8-0.5,23.6-0.5,35.4,0
							C436.6,574.5,436.5,574.1,436.4,573.3z"/>
						<path class="st31" d="M436.8,576.3c-11.8-0.5-23.5-0.5-35.3,0c0.2,0.8,0.3,1.2,0.5,2c11.7-0.5,23.3-0.5,35.1,0
							C437,577.4,436.9,577,436.8,576.3z"/>
						<path class="st31" d="M437.2,579.2c-11.7-0.5-23.3-0.5-34.9,0c0.2,0.8,0.3,1.2,0.5,2c11.6-0.5,23.1-0.5,34.7,0
							C437.4,580.4,437.3,580,437.2,579.2z"/>
						<path class="st31" d="M437.6,582.2c-11.6-0.5-23.1-0.5-34.6,0c0.2,0.8,0.3,1.2,0.5,2c11.5-0.5,22.9-0.5,34.4,0
							C437.8,583.4,437.7,583,437.6,582.2z"/>
						<path class="st31" d="M438,585.2c-11.5-0.5-22.8-0.5-34.3,0c0.2,0.8,0.3,1.2,0.5,2c11.4-0.5,22.7-0.5,34.1,0
							C438.2,586.4,438.1,586,438,585.2z"/>
						<path class="st31" d="M438.4,588.2c-11.3-0.5-22.6-0.5-34,0c0.2,0.8,0.3,1.2,0.5,2c11.3-0.5,22.5-0.5,33.7,0
							C438.6,589.4,438.6,589,438.4,588.2z"/>
						<path class="st31" d="M438.9,591.2c-11.2-0.5-22.4-0.5-33.6,0c0.2,0.8,0.3,1.2,0.5,2c11.2-0.5,22.2-0.5,33.4,0
							C439,592.4,439,592,438.9,591.2z"/>
						<path class="st31" d="M432.3,593.8c-8.8-0.2-17.6-0.1-26.4,0.4c0.2,0.8,0.3,1.2,0.5,2c8.7-0.4,17.4-0.6,26.2-0.4
							C432.5,595,432.4,594.6,432.3,593.8z"/>
					</g>
					<path class="st32" d="M473.9,603.2c-10.8-2.1-21.5-3.7-32.5-4.7c1.1,8.6,2.3,17.2,3.4,25.8c10,1.1,19.8,2.6,29.7,4.7
						C474.3,620.5,474.1,611.9,473.9,603.2z"/>
					<g>
						<path class="st31" d="M405.8,598.6c-9.2,0.9-18.2,2.2-27.2,3.9c0.3,0.8,0.4,1.2,0.7,2c9-1.7,17.9-3,27-3.9
							C406.1,599.8,406,599.4,405.8,598.6z"/>
						<path class="st31" d="M406.5,601.5c-10.3,1.1-20.4,2.6-30.5,4.8c0.3,0.8,0.4,1.2,0.7,2c10-2.2,20.1-3.7,30.3-4.8
							C406.8,602.7,406.7,602.3,406.5,601.5z"/>
						<path class="st31" d="M407.3,604.5c-10.2,1.1-20.2,2.6-30.2,4.8c0.3,0.8,0.4,1.2,0.7,2c9.9-2.2,19.8-3.7,30-4.8
							C407.6,605.7,407.5,605.3,407.3,604.5z"/>
						<path class="st31" d="M408,607.5c-10.1,1.1-20,2.6-29.9,4.8c0.3,0.8,0.4,1.2,0.7,2c9.8-2.2,19.6-3.7,29.7-4.8
							C408.3,608.7,408.2,608.3,408,607.5z"/>
						<path class="st31" d="M408.8,610.5c-10,1.1-19.8,2.6-29.5,4.8c0.3,0.8,0.4,1.2,0.7,2c9.7-2.2,19.4-3.7,29.3-4.8
							C409.1,611.7,409,611.3,408.8,610.5z"/>
						<path class="st31" d="M409.5,613.5c-9.9,1.1-19.5,2.6-29.2,4.8c0.3,0.8,0.4,1.2,0.7,2c9.6-2.2,19.2-3.7,29-4.8
							C409.8,614.7,409.7,614.3,409.5,613.5z"/>
						<path class="st31" d="M410.3,616.4c-9.8,1.1-19.3,2.6-28.9,4.8c0.3,0.8,0.4,1.2,0.7,2c9.5-2.2,19-3.7,28.7-4.8
							C410.6,617.6,410.5,617.2,410.3,616.4z"/>
						<path class="st31" d="M411,619.4c-9.7,1.1-19.1,2.6-28.6,4.8c0.3,0.8,0.4,1.2,0.7,2c9.4-2.2,18.7-3.7,28.3-4.8
							C411.3,620.6,411.2,620.2,411,619.4z"/>
						<path class="st31" d="M405.7,623c-7.5,1.1-14.8,2.4-22.2,4.1c0.3,0.8,0.4,1.2,0.7,2c7.3-1.7,14.6-3.1,22-4.1
							C406,624.2,405.9,623.8,405.7,623z"/>
						<path class="st31" d="M439.8,598.4c-9.6-0.5-19.2-0.5-28.8-0.2c0.2,0.8,0.3,1.2,0.5,2c9.6-0.3,19.1-0.2,28.6,0.2
							C440,599.6,440,599.2,439.8,598.4z"/>
						<path class="st31" d="M440.3,601.4c-10.9-0.5-21.6-0.5-32.5,0c0.2,0.8,0.3,1.2,0.5,2c10.8-0.5,21.5-0.5,32.3,0
							C440.4,602.6,440.4,602.2,440.3,601.4z"/>
						<path class="st31" d="M440.7,604.4c-10.8-0.5-21.4-0.5-32.2,0c0.2,0.8,0.3,1.2,0.5,2c10.7-0.5,21.3-0.5,31.9,0
							C440.8,605.6,440.8,605.2,440.7,604.4z"/>
						<path class="st31" d="M441.1,607.4c-10.6-0.5-21.2-0.5-31.8,0c0.2,0.8,0.3,1.2,0.5,2c10.6-0.5,21-0.5,31.6,0
							C441.2,608.6,441.2,608.2,441.1,607.4z"/>
						<path class="st31" d="M441.5,610.4c-10.5-0.5-21-0.5-31.5,0c0.2,0.8,0.3,1.2,0.5,2c10.5-0.5,20.8-0.5,31.3,0
							C441.6,611.6,441.6,611.2,441.5,610.4z"/>
						<path class="st31" d="M441.9,613.3c-10.4-0.5-20.7-0.5-31.2,0c0.2,0.8,0.3,1.2,0.5,2c10.4-0.5,20.6-0.5,31,0
							C442,614.5,442,614.1,441.9,613.3z"/>
						<path class="st31" d="M442.3,616.3c-10.3-0.5-20.5-0.5-30.8,0c0.2,0.8,0.3,1.2,0.5,2c10.2-0.5,20.4-0.5,30.6,0
							C442.4,617.5,442.4,617.1,442.3,616.3z"/>
						<path class="st31" d="M442.7,619.3c-10.2-0.5-20.3-0.5-30.5,0c0.2,0.8,0.3,1.2,0.5,2c10.1-0.5,20.2-0.5,30.3,0
							C442.9,620.5,442.8,620.1,442.7,619.3z"/>
						<path class="st31" d="M436.8,621.9c-8-0.2-15.9,0-23.9,0.4c0.2,0.8,0.3,1.2,0.5,2c7.9-0.4,15.8-0.6,23.7-0.4
							C437,623.1,436.9,622.7,436.8,621.9z"/>
					</g>
				</g>
			</g>
		</g>
		<g>
			<g>
				<path class="st33" d="M579.6,635c-32.7-9-66.6-8.1-99.4,0c0-44,0-87.9,0-131.9c49.6-8.4,100.2-8.9,149.7,0
					C613.2,547.1,596.4,591,579.6,635z"/>
				<g>
					<g>
						<path class="st32" d="M613.2,526.9c-41.6-6.9-83.6-6.5-125.2,0c0.1-6.6,0.3-13.3,0.4-19.9c43.8-6.5,88.2-6.9,132,0
							C618,513.6,615.6,520.2,613.2,526.9z"/>
						<path class="st32" d="M610.3,535.1c-40.6-6.9-81.8-6.5-122.4,0c0-0.3,0-0.4,0-0.7c40.7-6.5,82-6.9,122.7,0
							C610.4,534.6,610.4,534.8,610.3,535.1z"/>
						<path class="st31" d="M612.6,528.6c-12.9-2.2-25.8-3.7-38.9-4.7c-0.5,1.8-0.7,2.7-1.1,4.5c12.9,1,25.7,2.6,38.4,4.7
							C611.6,531.3,611.9,530.4,612.6,528.6z"/>
						<path class="st31" d="M571.5,523.7c-28.1-1.1-55.9,0.5-83.5,4.9c0,1.8-0.1,2.7-0.1,4.5c27.4-4.4,54.8-5.9,82.5-4.9
							C570.8,526.4,571,525.5,571.5,523.7z"/>
					</g>
					<g>
						<path class="st32" d="M589.2,590.8c-20.4-4-40.8-5.5-61.6-5c1-6.6,2-13.3,3.1-19.9c22.1-0.5,43.9,0.9,65.6,5
							C594,577.6,591.6,584.2,589.2,590.8z"/>
						<path class="st31" d="M588.6,592.6c-6.2-1.4-12.5-2.5-18.9-3.3c-0.1,0.5-0.2,0.7-0.3,1.2c6.3,0.9,12.6,2,18.8,3.3
							C588.4,593.3,588.4,593,588.6,592.6z"/>
						<path class="st31" d="M568.6,589.1c-13.8-1.4-27.4-1.9-41.3-1.5c-0.1,0.5-0.1,0.7-0.2,1.2c13.8-0.3,27.4,0.1,41.1,1.5
							C568.4,589.8,568.5,589.6,568.6,589.1z"/>
						<path class="st31" d="M587.6,595.2c-6.2-1.3-12.4-2.4-18.7-3.3c-0.1,0.5-0.2,0.7-0.3,1.2c6.3,0.9,12.4,2,18.6,3.3
							C587.4,595.9,587.5,595.7,587.6,595.2z"/>
						<path class="st31" d="M567.9,591.8c-13.6-1.4-27.2-1.9-40.9-1.5c-0.1,0.5-0.1,0.7-0.2,1.2c13.7-0.3,27.2,0.1,40.7,1.5
							C567.7,592.5,567.7,592.2,567.9,591.8z"/>
						<path class="st31" d="M586.7,597.9c-6.2-1.3-12.3-2.4-18.5-3.3c-0.1,0.5-0.2,0.7-0.3,1.2c6.2,0.9,12.3,2,18.5,3.3
							C586.4,598.6,586.5,598.4,586.7,597.9z"/>
						<path class="st31" d="M567.1,594.5c-13.5-1.4-26.9-1.9-40.5-1.5c-0.1,0.5-0.1,0.7-0.2,1.2c13.5-0.3,26.9,0.1,40.4,1.5
							C566.9,595.2,567,594.9,567.1,594.5z"/>
						<path class="st31" d="M585.7,600.6c-6.1-1.3-12.2-2.4-18.4-3.3c-0.1,0.5-0.2,0.7-0.3,1.2c6.2,0.9,12.2,2,18.3,3.3
							C585.5,601.3,585.6,601.1,585.7,600.6z"/>
						<path class="st31" d="M566.3,597.1c-13.4-1.4-26.7-1.9-40.2-1.5c-0.1,0.5-0.1,0.7-0.2,1.2c13.4-0.3,26.7,0.1,40,1.5
							C566.1,597.8,566.2,597.6,566.3,597.1z"/>
						<path class="st31" d="M584.8,603.3c-6-1.3-12.1-2.4-18.2-3.3c-0.1,0.5-0.2,0.7-0.3,1.2c6.1,0.9,12.1,2,18.1,3.3
							C584.5,604,584.6,603.7,584.8,603.3z"/>
						<path class="st31" d="M565.5,599.8c-13.3-1.4-26.5-1.9-39.8-1.5c-0.1,0.5-0.1,0.7-0.2,1.2c13.3-0.3,26.4,0.1,39.6,1.5
							C565.3,600.5,565.4,600.3,565.5,599.8z"/>
						<path class="st31" d="M583.8,606c-6-1.3-11.9-2.4-18-3.3c-0.1,0.5-0.2,0.7-0.3,1.2c6.1,0.9,12,2,17.9,3.3
							C583.6,606.7,583.6,606.4,583.8,606z"/>
						<path class="st31" d="M564.8,602.5c-13.2-1.4-26.2-1.9-39.4-1.5c-0.1,0.5-0.1,0.7-0.2,1.2c13.2-0.3,26.2,0.1,39.3,1.5
							C564.6,603.2,564.6,603,564.8,602.5z"/>
						<path class="st31" d="M582.8,608.6c-5.9-1.3-11.8-2.4-17.8-3.3c-0.1,0.5-0.2,0.7-0.3,1.2c6,0.9,11.9,2,17.8,3.3
							C582.6,609.3,582.7,609.1,582.8,608.6z"/>
						<path class="st31" d="M564,605.2c-13-1.4-26-1.9-39.1-1.5c-0.1,0.5-0.1,0.7-0.2,1.2c13.1-0.3,25.9,0.1,38.9,1.5
							C563.8,605.9,563.9,605.6,564,605.2z"/>
					</g>
					<path class="st31" d="M520.6,623.2c-11.6,1-23,2.6-34.4,5c0.7-30.8,1.4-61.6,2.1-92.4c15.3-2.4,30.6-4.1,46-5
						C529.8,561.6,525.2,592.4,520.6,623.2z"/>
					<g>
						<path class="st31" d="M559.7,531.7c-7.9-0.1-15.9-0.1-23.8,0.1c0.1-0.4,0.1-0.7,0.2-1.1c8-0.2,15.9-0.2,23.9-0.1
							C559.9,531.1,559.8,531.3,559.7,531.7z"/>
						<path class="st31" d="M559.3,533.7c-7.9-0.1-15.8-0.1-23.7,0.1c0.1-0.4,0.1-0.7,0.2-1.1c7.9-0.2,15.8-0.2,23.7-0.1
							C559.4,533.1,559.4,533.3,559.3,533.7z"/>
						<path class="st31" d="M558.8,535.7c-7.8-0.1-15.7-0.1-23.5,0.1c0.1-0.4,0.1-0.7,0.2-1.1c7.9-0.2,15.7-0.2,23.6-0.1
							C559,535.1,558.9,535.3,558.8,535.7z"/>
						<path class="st31" d="M558.4,537.8c-7.8-0.1-15.6-0.1-23.4,0.1c0.1-0.4,0.1-0.7,0.2-1.1c7.8-0.2,15.6-0.2,23.5-0.1
							C558.5,537.1,558.5,537.3,558.4,537.8z"/>
						<path class="st31" d="M558,539.8c-7.8-0.1-15.5-0.1-23.3,0.1c0.1-0.4,0.1-0.7,0.2-1.1c7.8-0.2,15.5-0.2,23.3-0.1
							C558.1,539.1,558.1,539.3,558,539.8z"/>
						<path class="st31" d="M557.5,541.8c-7.7-0.1-15.4-0.1-23.1,0.1c0.1-0.4,0.1-0.7,0.2-1.1c7.7-0.2,15.5-0.2,23.2-0.1
							C557.7,541.1,557.6,541.3,557.5,541.8z"/>
						<path class="st31" d="M557.1,543.8c-7.7-0.1-15.3-0.1-23,0.1c0.1-0.4,0.1-0.7,0.2-1.1c7.7-0.2,15.4-0.2,23.1-0.1
							C557.2,543.1,557.2,543.4,557.1,543.8z"/>
						<path class="st31" d="M556.6,545.8c-7.6-0.1-15.2-0.1-22.9,0.1c0.1-0.4,0.1-0.7,0.2-1.1c7.7-0.2,15.3-0.2,22.9-0.1
							C556.8,545.1,556.7,545.4,556.6,545.8z"/>
						<path class="st31" d="M556.2,547.8c-7.6-0.1-15.1-0.1-22.7,0.1c0.1-0.4,0.1-0.7,0.2-1.1c7.6-0.2,15.2-0.2,22.8-0.1
							C556.3,547.2,556.3,547.4,556.2,547.8z"/>
						<path class="st31" d="M555.8,549.8c-7.5-0.1-15.1-0.1-22.6,0.1c0.1-0.4,0.1-0.7,0.2-1.1c7.6-0.2,15.1-0.2,22.7-0.1
							C555.9,549.2,555.9,549.4,555.8,549.8z"/>
						<path class="st31" d="M555.3,551.8c-7.5-0.1-15-0.1-22.5,0.1c0.1-0.4,0.1-0.7,0.2-1.1c7.5-0.2,15-0.2,22.5-0.1
							C555.5,551.2,555.4,551.4,555.3,551.8z"/>
						<path class="st31" d="M554.9,553.8c-7.5-0.1-14.9-0.1-22.3,0.1c0.1-0.4,0.1-0.7,0.2-1.1c7.5-0.2,14.9-0.2,22.4-0.1
							C555,553.2,555,553.4,554.9,553.8z"/>
						<path class="st31" d="M554.4,555.9c-7.4-0.1-14.8-0.1-22.2,0.1c0.1-0.4,0.1-0.7,0.2-1.1c7.4-0.2,14.8-0.2,22.3-0.1
							C554.6,555.2,554.5,555.4,554.4,555.9z"/>
						<path class="st31" d="M554,557.9c-7.4-0.1-14.7-0.1-22.1,0.1c0.1-0.4,0.1-0.7,0.2-1.1c7.4-0.2,14.8-0.2,22.1-0.1
							C554.1,557.2,554.1,557.4,554,557.9z"/>
						<path class="st31" d="M553.6,559.9c-7.3-0.1-14.6-0.1-21.9,0.1c0.1-0.4,0.1-0.7,0.2-1.1c7.3-0.2,14.7-0.2,22-0.1
							C553.7,559.2,553.7,559.4,553.6,559.9z"/>
						<path class="st31" d="M553.1,561.9c-7.3-0.1-14.5-0.1-21.8,0.1c0.1-0.4,0.1-0.7,0.2-1.1c7.3-0.2,14.6-0.2,21.9-0.1
							C553.3,561.2,553.2,561.4,553.1,561.9z"/>
						<path class="st31" d="M552.7,563.9c-7.2-0.1-14.4-0.1-21.7,0.1c0.1-0.4,0.1-0.7,0.2-1.1c7.3-0.2,14.5-0.2,21.8-0.1
							C552.8,563.2,552.8,563.5,552.7,563.9z"/>
					</g>
					<g>
						<path class="st31" d="M579.5,551.5c-7.4-0.7-14.7-1.2-22.1-1.6c0.1-0.4,0.1-0.7,0.2-1.1c7.4,0.4,14.8,0.9,22.1,1.6
							C579.6,550.8,579.6,551,579.5,551.5z"/>
						<path class="st31" d="M578.9,553.5c-7.3-0.7-14.6-1.2-21.9-1.6c0.1-0.4,0.1-0.7,0.2-1.1c7.4,0.4,14.7,0.9,22,1.6
							C579.1,552.8,579,553,578.9,553.5z"/>
						<path class="st31" d="M578.3,555.5c-7.3-0.7-14.5-1.2-21.8-1.6c0.1-0.4,0.1-0.7,0.2-1.1c7.3,0.4,14.6,0.9,21.9,1.6
							C578.5,554.8,578.4,555,578.3,555.5z"/>
						<path class="st31" d="M577.7,557.5c-7.2-0.7-14.4-1.2-21.7-1.6c0.1-0.4,0.1-0.7,0.2-1.1c7.3,0.4,14.5,0.9,21.7,1.6
							C577.9,556.8,577.8,557,577.7,557.5z"/>
						<path class="st31" d="M577.1,559.5c-7.2-0.7-14.3-1.2-21.5-1.6c0.1-0.4,0.1-0.7,0.2-1.1c7.2,0.4,14.4,0.9,21.6,1.6
							C577.3,558.8,577.3,559.1,577.1,559.5z"/>
						<path class="st31" d="M576.6,561.5c-7.1-0.7-14.3-1.2-21.4-1.6c0.1-0.4,0.1-0.7,0.2-1.1c7.2,0.4,14.3,0.9,21.5,1.6
							C576.7,560.8,576.7,561.1,576.6,561.5z"/>
						<path class="st31" d="M576,563.5c-7.1-0.7-14.2-1.2-21.3-1.6c0.1-0.4,0.1-0.7,0.2-1.1c7.1,0.4,14.2,0.9,21.4,1.6
							C576.2,562.9,576.1,563.1,576,563.5z"/>
						<path class="st31" d="M575.4,565.5c-7-0.7-14.1-1.2-21.2-1.6c0.1-0.4,0.1-0.7,0.2-1.1c7.1,0.4,14.2,0.9,21.2,1.6
							C575.6,564.9,575.5,565.1,575.4,565.5z"/>
					</g>
					<g>
						<path class="st31" d="M608.6,536.8c-7.4-1.3-14.8-2.4-22.2-3.3c0.1-0.4,0.2-0.7,0.3-1.1c7.5,0.9,14.9,2,22.3,3.3
							C608.8,536.2,608.7,536.4,608.6,536.8z"/>
						<path class="st31" d="M607.8,538.8c-7.3-1.3-14.7-2.4-22.1-3.3c0.1-0.4,0.2-0.7,0.3-1.1c7.4,0.9,14.8,2,22.2,3.3
							C608.1,538.2,608,538.4,607.8,538.8z"/>
						<path class="st31" d="M607.1,540.8c-7.3-1.3-14.6-2.4-22-3.3c0.1-0.4,0.2-0.7,0.3-1.1c7.4,0.9,14.7,2,22,3.3
							C607.4,540.2,607.3,540.4,607.1,540.8z"/>
						<path class="st31" d="M606.4,542.9c-7.3-1.3-14.5-2.4-21.8-3.3c0.1-0.4,0.2-0.7,0.3-1.1c7.4,0.9,14.6,2,21.9,3.3
							C606.6,542.2,606.6,542.4,606.4,542.9z"/>
						<path class="st31" d="M605.7,544.9c-7.2-1.3-14.4-2.4-21.7-3.3c0.1-0.4,0.2-0.7,0.3-1.1c7.3,0.9,14.5,2,21.8,3.3
							C605.9,544.2,605.8,544.4,605.7,544.9z"/>
						<path class="st31" d="M605,546.9c-7.2-1.3-14.3-2.4-21.6-3.3c0.1-0.4,0.2-0.7,0.3-1.1c7.3,0.9,14.5,2,21.6,3.3
							C605.2,546.2,605.1,546.4,605,546.9z"/>
						<path class="st31" d="M604.2,548.9c-7.1-1.3-14.2-2.4-21.4-3.3c0.1-0.4,0.2-0.7,0.3-1.1c7.2,0.9,14.4,2,21.5,3.3
							C604.5,548.2,604.4,548.4,604.2,548.9z"/>
						<path class="st31" d="M603.5,550.9c-7.1-1.3-14.2-2.4-21.3-3.3c0.1-0.4,0.2-0.7,0.3-1.1c7.2,0.9,14.3,2,21.4,3.3
							C603.8,550.2,603.7,550.5,603.5,550.9z"/>
						<path class="st31" d="M602.8,552.9c-7-1.3-14.1-2.4-21.2-3.3c0.1-0.4,0.2-0.7,0.3-1.1c7.1,0.9,14.2,2,21.3,3.3
							C603,552.2,603,552.5,602.8,552.9z"/>
						<path class="st31" d="M602.1,554.9c-7-1.3-14-2.4-21.1-3.3c0.1-0.4,0.2-0.7,0.3-1.1c7.1,0.9,14.1,2,21.1,3.3
							C602.3,554.3,602.2,554.5,602.1,554.9z"/>
						<path class="st31" d="M601.4,556.9c-6.9-1.3-13.9-2.4-20.9-3.3c0.1-0.4,0.2-0.7,0.3-1.1c7.1,0.9,14,2,21,3.3
							C601.6,556.3,601.5,556.5,601.4,556.9z"/>
						<path class="st31" d="M600.6,558.9c-6.9-1.3-13.8-2.4-20.8-3.3c0.1-0.4,0.2-0.7,0.3-1.1c7,0.9,13.9,2,20.9,3.3
							C600.9,558.3,600.8,558.5,600.6,558.9z"/>
						<path class="st31" d="M599.9,561c-6.8-1.4-13.7-2.4-20.7-3.3c0.1-0.4,0.2-0.7,0.3-1.1c7,0.9,13.9,1.9,20.7,3.3
							C600.2,560.3,600.1,560.5,599.9,561z"/>
						<path class="st31" d="M599.2,563c-6.8-1.4-13.6-2.4-20.5-3.3c0.1-0.4,0.2-0.7,0.3-1.1c6.9,0.9,13.8,1.9,20.6,3.3
							C599.4,562.3,599.4,562.5,599.2,563z"/>
						<path class="st31" d="M598.5,565c-6.8-1.4-13.6-2.4-20.4-3.3c0.1-0.4,0.2-0.7,0.3-1.1c6.9,0.9,13.7,1.9,20.5,3.3
							C598.7,564.3,598.6,564.5,598.5,565z"/>
						<path class="st31" d="M597.8,567c-6.7-1.4-13.5-2.4-20.3-3.3c0.1-0.4,0.2-0.7,0.3-1.1c6.8,0.9,13.6,1.9,20.3,3.3
							C598,566.3,597.9,566.5,597.8,567z"/>
						<path class="st31" d="M597,569c-6.7-1.4-13.4-2.4-20.1-3.3c0.1-0.4,0.2-0.7,0.3-1.1c6.8,0.9,13.5,1.9,20.2,3.3
							C597.3,568.3,597.2,568.6,597,569z"/>
					</g>
					<g>
						<path class="st31" d="M581.6,612c-5.8-1.3-11.5-2.4-17.4-3.3c0.1-0.4,0.2-0.7,0.3-1.1c5.9,0.9,11.6,2,17.4,3.3
							C581.9,611.4,581.8,611.6,581.6,612z"/>
						<path class="st31" d="M580.9,614.1c-5.7-1.3-11.4-2.4-17.2-3.3c0.1-0.4,0.2-0.7,0.3-1.1c5.8,0.9,11.6,2,17.3,3.3
							C581.1,613.4,581.1,613.6,580.9,614.1z"/>
						<path class="st31" d="M580.2,616.1c-5.7-1.3-11.3-2.4-17.1-3.3c0.1-0.4,0.2-0.7,0.3-1.1c5.8,0.9,11.5,2,17.2,3.3
							C580.4,615.4,580.3,615.6,580.2,616.1z"/>
						<path class="st31" d="M579.5,618.1c-5.6-1.3-11.2-2.4-17-3.3c0.1-0.4,0.2-0.7,0.3-1.1c5.8,0.9,11.4,2,17,3.3
							C579.7,617.4,579.6,617.6,579.5,618.1z"/>
						<path class="st31" d="M578.7,620.1c-5.6-1.3-11.2-2.4-16.8-3.3c0.1-0.4,0.2-0.7,0.3-1.1c5.7,0.9,11.3,2,16.9,3.3
							C579,619.4,578.9,619.6,578.7,620.1z"/>
						<path class="st31" d="M578,622.1c-5.6-1.3-11.1-2.4-16.7-3.3c0.1-0.4,0.2-0.7,0.3-1.1c5.7,0.9,11.2,2,16.8,3.3
							C578.3,621.4,578.2,621.7,578,622.1z"/>
						<path class="st31" d="M577.3,624.1c-5.5-1.3-11-2.4-16.6-3.3c0.1-0.4,0.2-0.7,0.3-1.1c5.6,0.9,11.1,2,16.7,3.3
							C577.5,623.4,577.5,623.7,577.3,624.1z"/>
						<path class="st31" d="M576.6,626.1c-5.5-1.3-10.9-2.4-16.5-3.3c0.1-0.4,0.2-0.7,0.3-1.1c5.6,0.9,11,2,16.5,3.3
							C576.8,625.5,576.7,625.7,576.6,626.1z"/>
						<path class="st31" d="M575.9,628.1c-5.4-1.3-10.8-2.4-16.3-3.3c0.1-0.4,0.2-0.7,0.3-1.1c5.5,0.9,10.9,2,16.4,3.3
							C576.1,627.5,576,627.7,575.9,628.1z"/>
					</g>
					<g>
						<path class="st31" d="M563,608.6c-6.1-0.7-12.2-1.2-18.3-1.6c0.1-0.4,0.1-0.7,0.2-1.1c6.2,0.4,12.3,0.9,18.4,1.6
							C563.2,607.9,563.1,608.1,563,608.6z"/>
						<path class="st31" d="M562.4,610.6c-6.1-0.7-12.1-1.2-18.2-1.6c0.1-0.4,0.1-0.7,0.2-1.1c6.1,0.4,12.2,0.9,18.3,1.6
							C562.6,609.9,562.5,610.1,562.4,610.6z"/>
						<path class="st31" d="M561.8,612.6c-6-0.7-12-1.2-18.1-1.6c0.1-0.4,0.1-0.7,0.2-1.1c6.1,0.4,12.1,0.9,18.2,1.6
							C562,611.9,561.9,612.2,561.8,612.6z"/>
						<path class="st31" d="M561.2,614.6c-6-0.7-11.9-1.2-18-1.6c0.1-0.4,0.1-0.7,0.2-1.1c6,0.4,12,0.9,18,1.6
							C561.4,613.9,561.4,614.2,561.2,614.6z"/>
						<path class="st31" d="M560.6,616.6c-5.9-0.7-11.9-1.2-17.8-1.6c0.1-0.4,0.1-0.7,0.2-1.1c6,0.4,11.9,0.9,17.9,1.6
							C560.8,616,560.8,616.2,560.6,616.6z"/>
						<path class="st31" d="M560.1,618.6c-5.9-0.7-11.8-1.2-17.7-1.6c0.1-0.4,0.1-0.7,0.2-1.1c5.9,0.4,11.8,0.9,17.8,1.6
							C560.3,618,560.2,618.2,560.1,618.6z"/>
						<path class="st31" d="M559.5,620.6c-5.9-0.7-11.7-1.2-17.6-1.6c0.1-0.4,0.1-0.7,0.2-1.1c5.9,0.4,11.8,0.9,17.6,1.6
							C559.7,620,559.6,620.2,559.5,620.6z"/>
						<path class="st31" d="M558.9,622.7c-5.8-0.7-11.6-1.2-17.4-1.6c0.1-0.4,0.1-0.7,0.2-1.1c5.9,0.4,11.7,0.9,17.5,1.6
							C559.1,622,559,622.2,558.9,622.7z"/>
						<path class="st31" d="M558.3,624.7c-5.8-0.7-11.5-1.2-17.3-1.6c0.1-0.4,0.1-0.7,0.2-1.1c5.8,0.4,11.6,0.9,17.4,1.6
							C558.5,624,558.4,624.2,558.3,624.7z"/>
					</g>
					<path class="st31" d="M580.2,549.1c-7.4-0.7-14.8-1.2-22.2-1.6c1.3-5.6,2.5-11.2,3.8-16.8c7.8,0.4,15.6,0.9,23.3,1.6
						C583.4,537.9,581.8,543.5,580.2,549.1z"/>
					<path class="st31" d="M539.7,623c-6-0.1-11.9,0-17.8,0.1c0.9-5.7,1.8-11.5,2.6-17.2c6.3-0.2,12.6-0.2,18.9-0.1
						C542.3,611.6,541,617.3,539.7,623z"/>
				</g>
			</g>
		</g>
	</g>
	<g id="レイヤー_7" class="st29">
		<g>
			<path class="st22" d="M405,432"/>
		</g>
	</g>
</g>
<g id="hands">
	<path class="st34" d="M492.3,525.9c0,0-58.1-84.3-345.3-25l76.8,87.3L492.3,525.9z"/>
	<path class="st34" d="M492.3,525.9c0,0,58.1-84.3,345.3-25l-76.8,87.3L492.3,525.9z"/>
	<path class="st35" d="M492.3,525.9c0,0-139.2-83-335.3,7.5c0,0,106.1,86.2,124.9,163c3.7,15.1,3.3,26.2,1.2,40
		c-8.7,58.1-13.7,105.4-13.7,105.4s124.9-49.2,222.9,9.5V525.9z"/>
	<path class="st36" d="M492.3,525.9c0,0,139.2-83,335.3,7.5c0,0-106.1,86.2-124.9,163c-3.7,15.1-3.3,26.2-1.2,40
		c8.7,58.1,13.7,105.4,13.7,105.4s-124.9-49.2-222.9,9.5V525.9z"/>
	<path class="st34" d="M501.9,591.5v108.4c0,0,63.9-28.5,115.3-23.5v-111C617.2,565.4,549.9,566.6,501.9,591.5z"/>
	<path class="st34" d="M501.9,730.3v98.3c0,0,11.8-9.3,32.9-11.3V716.6C534.8,716.6,522.2,719,501.9,730.3z"/>
	<path class="st34" d="M543.1,714.8V815c0,0,14.1-7.9,32.9-6.5V705.8C576,705.8,566.9,705,543.1,714.8z"/>
	<path class="st34" d="M742.1,586c0,0-43.4,72.6-45.6,111.4l-36.6-5.2l19.4-122.9C679.3,569.3,719.6,577.5,742.1,586z"/>
	<path class="st2" d="M713.9,666.4c0,0,18,10.3,16.3,33.3c-1.7,23-13.7,48.5-26.9,49.4c-13.2,0.9-21.8-12.7-26-30.6
		C674.7,707,677.1,641.7,713.9,666.4z"/>
	<path class="st34" d="M180.9,539.5c0,0,95.9,92.7,107.2,145.7l193.5,12.2v-169C481.6,528.4,315.9,466.1,180.9,539.5z"/>
	<path class="st2" d="M270.7,666.4c0,0-18,10.3-16.3,33.3c1.7,23,13.7,48.5,26.9,49.4c13.2,0.9,21.8-12.7,26-30.6
		C309.9,707,307.4,641.7,270.7,666.4z"/>
</g>
<g id="hat_1_">
	<g>
		<path id="bottom_x5F_left_1_" class="st37" d="M407.6,210.1c0,0,16.6,30.3,88.8,30.3v-30.3H407.6z"/>
		<path id="bottom_x5F_right_1_" class="st38" d="M496.4,210.1h88.8c0,0-16.6,30.3-88.8,30.3"/>
		<path id="left_1_" class="st38" d="M386.4,211.9c0,0,22.7-73.4,109.6-73.4v73.4H386.4z"/>
		<path id="right_1_" class="st37" d="M605.6,211.9c0,0-22.7-73.4-109.6-73.4v73.4H605.6z"/>
		<path class="st39" d="M494.6,137c0,0-45.4-19.1-50.9-1.5C443.7,135.6,438.3,162,494.6,137z"/>
		<path class="st40" d="M500.1,137c0,0,45.4-19.1,50.9-1.5C551,135.6,556.5,162,500.1,137z"/>
	</g>
</g>
</svg>
