<?xml version="1.0" encoding="utf-8"?>
<!-- Generator: Adobe Illustrator 21.1.0, SVG Export Plug-In . SVG Version: 6.00 Build 0)  -->
<svg version="1.1" xmlns="http://www.w3.org/2000/svg" xmlns:xlink="http://www.w3.org/1999/xlink" x="0px" y="0px"
	 width="695.232px" height="787.883px" viewBox="0 0 695.232 787.883" enable-background="new 0 0 695.232 787.883"
	 xml:space="preserve">
<g id="レイヤー_8">
	<g>
		<path fill="#5D4936" d="M167.805,291.51c0,0,10.223-23.853,52.25-18.174l14.766,12.495L167.805,291.51z"/>
	</g>
	<g>
		<path fill="#5D4936" d="M519.923,291.51c0,0-10.223-23.853-52.25-18.174l-14.766,12.495L519.923,291.51z"/>
	</g>
</g>
<g id="shiba_x5F_dog">
	<path fill="#C48C43" d="M263.217,343.76c0,0-20.446,59.065-56.793,127.217c0,0-56.793,122.673-34.076,179.467
		s77.239,61.337,168.108,61.337s127.217,15.902,170.38-47.706c0,0,86.326-40.891,99.956-122.673
		c13.63-81.782,20.446-118.13,20.446-118.13s-104.5,29.532-122.673,118.13c0,0-86.326-172.652-84.054-204.456
		c0,0-159.914-20.645-167.419-2.372c-7.504,18.274,0,0,0,0"/>
	<path fill="#EDDBC8" d="M259.56,665.459c-0.023,0.023-0.046,0.045-0.091,0.068v-0.023
		C259.492,665.482,259.537,665.482,259.56,665.459z"/>
	<path fill="#EDDBC8" d="M233.162,698.195c0.045,0.091,0.068,0.182,0.068,0.273c0,0-0.182-0.023-0.5-0.045
		C232.867,698.331,233.026,698.263,233.162,698.195z"/>
	<path fill="#EDDBC8" d="M258.265,688.404c0.114,0.114,0.182,0.25,0.25,0.409c-0.522,0-1.068,0-1.613,0.023
		C257.333,688.699,257.788,688.563,258.265,688.404z"/>
	<path fill="#EDDBC8" d="M260.014,688.813c-0.591,0.682-1.045,0.818-1.34,0.25c-0.045-0.091-0.091-0.159-0.159-0.25H260.014z"/>
	<path fill="#EDDBC8" d="M427.124,614.095c0,0-34.076-22.717-74.967,0l2.272,90.869c0,0-3.408,14.766,55.657,14.766
		s74.967-13.63,15.902-31.804L427.124,614.095z"/>
	<path fill="#EDDBC8" d="M443.138,543.672c0,0-15.539,29.101-95.867,29.532h-1.817c-80.328-0.432-95.867-29.532-95.867-29.532
		c-9.768-11.063-12.063-31.872-10.405-55.953c0.068-1.09,0.159-2.181,0.25-3.294c-5.27,0.295-12.563,11.54-12.563,11.54
		c0-9.996,11.518-23.762,14.289-26.92c0.364-0.454,0.591-0.681,0.591-0.681c-0.159-0.068-0.318-0.136-0.477-0.159
		c-6.156-1.727-25.761,11.858-25.761,11.858c0-5.18,20.446-27.261,29.078-31.918c0.326-0.176,0.523-0.477,0.772-0.682
		c-0.205-0.068-0.409-0.114-0.613-0.159c-6.134-1.249-9.541,3.748-9.905,4.316c4.294-10.7,11.359-14.834,12.131-15.289
		c0.045,0,0.068-0.023,0.068-0.023h-0.068c-8.224,0.568-21.241,10.813-21.241,10.813c0-12.063,22.036-33.281,27.079-37.983
		c-4.044,3.067-11.177,1.636-11.177,1.636c5.157,0,13.335-13.903,17.061-20.695c1.181-2.204,1.908-3.658,1.908-3.658
		c-0.295,0.023-0.591,0.046-0.886,0.114c-8.133,1.204-18.083,10.609-18.083,10.609c1.954-9.723,23.694-39.415,29.896-47.752
		c0.772-1.022,1.295-1.727,1.522-2.022l0.114-0.023l72.286-7.928l0.909-0.114l0.909,0.114l73.241,8.042
		C420.512,347.462,477.214,505.052,443.138,543.672z"/>
	<path fill="#EDDBC8" d="M247.043,436.31c0,0-0.023,0.023-0.068,0.023c0-0.023,0-0.023,0-0.023H247.043z"/>
	<path fill="#EDDBC8" d="M241.749,468.364c0,0-0.227,0.227-0.591,0.681c0.023-0.273,0.068-0.568,0.114-0.841
		C241.431,468.228,241.59,468.296,241.749,468.364z"/>
	<path fill="#EDDBC8" d="M260.605,386.423c0,0-0.727,1.454-1.908,3.658c0.318-1.204,0.659-2.385,1.022-3.544
		C260.014,386.468,260.309,386.445,260.605,386.423z"/>
	<path fill="#EDDBC8" d="M273.054,347.372c-0.227,0.295-0.75,1-1.522,2.022c0.432-1.272,0.682-1.931,0.682-1.931L273.054,347.372z"
		/>
	<path fill="#EDDBC8" d="M273.19,347.19c0,0,0,0.045-0.023,0.159l-0.114,0.023C273.145,347.258,273.19,347.19,273.19,347.19z"/>
	<path opacity="0.06" fill="#040000" d="M279.119,459.618c0-44.53,15.455-85.393,41.203-117.441l-47.154,5.172l-0.114,0.023
		c-0.227,0.295-0.75,1-1.522,2.022c-6.202,8.337-27.942,38.029-29.896,47.752c0,0,9.95-9.405,18.083-10.609
		c0.295-0.068,0.591-0.091,0.886-0.114c0,0-0.727,1.454-1.908,3.658c-3.726,6.792-11.904,20.695-17.061,20.695
		c0,0,7.133,1.431,11.177-1.636c-5.043,4.703-27.079,25.921-27.079,37.983c0,0,13.017-10.246,21.241-10.813h0.068
		c0,0-0.023,0.023-0.068,0.023c-0.772,0.454-7.837,4.589-12.131,15.289c0.363-0.567,3.764-5.554,9.886-4.319
		c-0.018-0.088-0.039-0.39-0.059-0.698l-0.081-0.73c0.023-0.15,0.052,0.294,0.081,0.73l0.078,0.701
		c0.205,0.045,0.409,0.091,0.613,0.159c-0.25,0.205-0.447,0.506-0.772,0.682c-8.633,4.657-29.078,26.738-29.078,31.918
		c0,0,19.605-13.585,25.761-11.858c0.159,0.023,0.318,0.091,0.477,0.159c0,0-0.227,0.227-0.591,0.681
		c-2.771,3.158-14.289,16.924-14.289,26.92c0,0,7.292-11.245,12.563-11.54c-0.091,1.113-0.182,2.204-0.25,3.294
		c-1.658,24.08,0.636,44.889,10.405,55.953c0,0,11.619,21.672,66.461,27.881C292.869,540.389,279.119,501.632,279.119,459.618z"/>
	<path fill="#EDDBC8" d="M260.014,688.813c-0.591,0.682-1.045,0.818-1.34,0.25c-0.045-0.091-0.091-0.159-0.159-0.25H260.014z"/>
	<path fill="#EDDBC8" d="M260.014,688.813c-0.591,0.682-1.045,0.818-1.34,0.25c-0.045-0.091-0.091-0.159-0.159-0.25H260.014z"/>
	<path opacity="0.06" fill="#040000" d="M259.56,665.459c-0.023,0.023-0.046,0.045-0.091,0.068v-0.023
		C259.492,665.482,259.537,665.482,259.56,665.459z"/>
	<path opacity="0.06" fill="#040000" d="M233.162,698.195c0.045,0.091,0.068,0.182,0.068,0.273c0,0-0.182-0.023-0.5-0.045
		C232.867,698.331,233.026,698.263,233.162,698.195z"/>
	<path opacity="0.06" fill="#040000" d="M258.265,688.404c0.114,0.114,0.182,0.25,0.25,0.409c-0.522,0-1.068,0-1.613,0.023
		C257.333,688.699,257.788,688.563,258.265,688.404z"/>
	<path opacity="0.06" fill="#040000" d="M260.014,688.813c-0.591,0.682-1.045,0.818-1.34,0.25c-0.045-0.091-0.091-0.159-0.159-0.25
		H260.014z"/>
	<path opacity="0.06" fill="#040000" d="M260.014,688.813c-0.591,0.682-1.045,0.818-1.34,0.25c-0.045-0.091-0.091-0.159-0.159-0.25
		H260.014z"/>
	<path opacity="0.06" fill="#040000" d="M260.014,688.813c-0.591,0.682-1.045,0.818-1.34,0.25c-0.045-0.091-0.091-0.159-0.159-0.25
		H260.014z"/>
	<g>
		<path fill="#EDDBC8" d="M331.369,773.117c0,0,3.408,14.766-55.657,14.766c-19.014,0-33.553-1.408-42.549-3.907
			c-7.338-1.022-15.38,0.5-15.38,0.5c0-1.272,2.908-4.021,5.066-5.702c-3.521,0.522-9.609-1.113-9.609-1.113
			c4.543,0,10.859-4.816,10.859-4.816c-2.794-2.544-15.402,0.273-15.402,0.273c4.112-8.224,20.923-6.883,24.035-6.543
			c0.318,0.023,0.5,0.045,0.5,0.045c0-0.091-0.023-0.182-0.068-0.273c-1.045-3.907-15.38-2.317-15.38-2.317
			c8.474-5.657,26.625-6.906,39.119-7.042c0.545-0.023,1.091-0.023,1.613-0.023c0.068,0.091,0.114,0.159,0.159,0.25
			c0.295,0.568,0.75,0.432,1.34-0.25h-1.499c-0.068-0.159-0.136-0.295-0.25-0.409c-2.567-3.657-8.678-1.613-8.678-1.613l9.723-7.383
			c-8.451-2.84-18.81,7.383-18.81,7.383c0-8.61,17.129-20.059,18.969-21.263c0.045-0.023,0.068-0.046,0.091-0.068
			c-0.023,0.023-0.068,0.023-0.091,0.045c-5.793,3.43-9.882-1.431-9.882-1.431c4.543,0,9.405-15.743,9.405-15.743
			c-4.203,0.136-11.677,8.928-11.677,8.928c-2.204-11.063,10.95-22.899,11.654-23.535c-8.746-3.09-20.741,12.176-20.741,12.176
			c0-18.174,20.446-31.804,20.446-31.804s34.076-22.717,74.967,0L331.369,773.117z"/>
		<path fill="#EDDBC8" d="M354.086,773.117c0,0-3.408,14.766,55.657,14.766c19.014,0,33.553-1.408,42.549-3.907
			c7.338-1.022,15.38,0.5,15.38,0.5c0-1.272-2.908-4.021-5.066-5.702c3.521,0.522,9.609-1.113,9.609-1.113
			c-4.543,0-10.859-4.816-10.859-4.816c2.794-2.544,15.402,0.273,15.402,0.273c-4.112-8.224-20.923-6.883-24.035-6.543
			c-0.318,0.023-0.5,0.045-0.5,0.045c0-0.091,0.023-0.182,0.068-0.273c1.045-3.907,15.38-2.317,15.38-2.317
			c-8.474-5.657-26.625-6.906-39.119-7.042c-0.545-0.023-1.091-0.023-1.613-0.023c-0.068,0.091-0.114,0.159-0.159,0.25
			c-0.295,0.568-0.75,0.432-1.34-0.25h1.499c0.068-0.159,0.136-0.295,0.25-0.409c2.567-3.657,8.678-1.613,8.678-1.613l-9.723-7.383
			c8.451-2.84,18.81,7.383,18.81,7.383c0-8.61-17.129-20.059-18.969-21.263c-0.045-0.023-0.068-0.046-0.091-0.068
			c0.023,0.023,0.068,0.023,0.091,0.045c5.793,3.43,9.882-1.431,9.882-1.431c-4.543,0-9.405-15.743-9.405-15.743
			c4.203,0.136,11.677,8.928,11.677,8.928c2.204-11.063-10.95-22.899-11.654-23.535c8.746-3.09,20.741,12.176,20.741,12.176
			c0-18.174-20.446-31.804-20.446-31.804s-34.076-22.717-74.967,0L354.086,773.117z"/>
		<path opacity="0.06" fill="#040000" d="M274.576,757.214c0-30.987,7.76-60.015,21.252-85.05
			c-22.097,0.064-37.154,10.083-37.154,10.083s-20.446,13.63-20.446,31.804c0,0,11.995-15.266,20.741-12.176
			c-0.704,0.636-13.858,12.472-11.654,23.535c0,0,7.474-8.792,11.677-8.928c0,0-4.862,15.743-9.405,15.743
			c0,0,4.089,4.862,9.882,1.431c0.023-0.023,0.068-0.023,0.091-0.045c-0.023,0.023-0.046,0.045-0.091,0.068
			c-1.84,1.204-18.969,12.653-18.969,21.263c0,0,10.359-10.223,18.81-7.383l-9.723,7.383c0,0,6.111-2.045,8.678,1.613
			c0.114,0.114,0.182,0.25,0.25,0.409h1.499c-0.591,0.681-1.045,0.818-1.34,0.25c-0.045-0.091-0.091-0.159-0.159-0.25
			c-0.522,0-1.068,0-1.613,0.023c-12.495,0.136-30.646,1.386-39.119,7.042c0,0,14.335-1.59,15.38,2.317
			c0.045,0.091,0.068,0.182,0.068,0.273c0,0-0.182-0.023-0.5-0.045c-3.112-0.341-19.923-1.681-24.035,6.543
			c0,0,12.608-2.817,15.402-0.273c0,0-6.315,4.816-10.859,4.816c0,0,6.088,1.636,9.609,1.113c-2.158,1.681-5.066,4.43-5.066,5.702
			c0,0,8.042-1.522,15.38-0.5c8.996,2.499,23.535,3.907,42.549,3.907c0.511,0,0.98-0.01,1.481-0.012
			C275.505,777.921,274.576,767.687,274.576,757.214z"/>
	</g>
	<path fill="#EDDBC8" d="M540.05,493.58c4.93,13.744,22.581,27.374,35.598,27.374c19.06,0,39.755-18.174,48.842-36.348
		c27.238-51.455,61.655-45.798,63.518-45.457l-15.811-4.521c15.198-1.408,23.035-14.108,23.035-14.108
		c-14.448,5.202-54.59,1.408-54.59,1.408c10.473-2.476,12.245-11.154,12.245-11.154c-9.087,6.815-20.854,6.134-20.854,6.134
		c1.545-4.998,7.224-6.134,7.224-6.134c-15.902-4.543-32.281,6.293-32.281,6.293c-0.477-2.771,2.749-10.836,2.749-10.836
		C592.8,413.683,556.339,441.444,540.05,493.58z"/>
	<g>
		<g>
			<path fill="#C48C43" d="M344.113,362.365c-9.378,0-166.381-138.394-166.381-138.394s15.516-39.096,30.964-68.765c0,0,0,0,0-0.023
				c16.425-31.486,37.461-64.426,59.383-79.42c0.023-0.023,0.068-0.045,0.091-0.068h151.888
				c43.231,29.442,90.801,146.958,90.801,146.958S353.655,362.365,344.113,362.365z"/>
		</g>
		<path fill="#C48C43" d="M224.416,30.934c-4.999-3.688-12.452-8.779-18.593-6.296c-5.826,2.356-7.792,10.304-8.9,16.15
			c-5.672,29.925-0.019,61.086,0.996,66.458c6.183,32.745,9.561,50.633,23.73,67.606c8.769,10.503,18.243,16.55,24.789,19.969
			l53.289-22.114c2.149-7.071,4.576-18.445,2.931-32.524c-2.409-20.606-30.458-60.507-30.458-60.507S252.5,51.653,224.416,30.934z"
			/>
		<path fill="#C48C43" d="M461.771,30.934c4.999-3.688,12.452-8.779,18.593-6.296c5.826,2.356,7.792,10.304,8.9,16.15
			c5.672,29.925,0.019,61.086-0.996,66.458c-6.183,32.745-9.561,50.633-23.73,67.606c-8.769,10.503-18.243,16.55-24.789,19.969
			l-53.289-22.114c-2.149-7.071-4.576-18.445-2.931-32.524c2.409-20.606,12.062-34.338,30.458-60.507
			C413.988,79.676,433.688,51.653,461.771,30.934z"/>
	</g>
	<g>
		<g>
			<path fill="#C48C43" d="M510.859,222.654c0,0-157.204,139.711-166.745,139.711c-9.382,0-166.381-138.394-166.381-138.394
				s15.516-39.096,30.964-68.765c0,0,0,0,0-0.023c0.205-0.386,0.409-0.772,0.613-1.159c16.334-31.123,37.12-63.449,58.77-78.261
				c0.023-0.023,0.068-0.045,0.091-0.068h151.888c19.946,13.562,40.778,45.844,57.452,76.694
				C497.024,188.487,510.859,222.654,510.859,222.654z"/>
		</g>
		<path fill="#C48C43" d="M269.237,75.695h-1.068c-0.023,0.023-0.068,0.045-0.091,0.068c-21.65,14.812-42.436,47.138-58.77,78.261
			c-4.839-12.131-7.588-26.647-11.381-46.775c-1.022-5.384-6.679-36.529-1-66.471c1.113-5.838,3.067-13.789,8.905-16.152
			c6.134-2.476,13.585,2.613,18.583,6.315C246.066,46.912,262.74,67.244,269.237,75.695z"/>
		<g>
			<path display="none" fill="#7C4A21" d="M266.868,85.42h-0.904c-0.019,0.019-0.058,0.038-0.077,0.058
				c-18.334,12.543-35.936,39.919-49.769,66.275c-4.098-10.273-6.426-22.566-9.638-39.611c-0.866-4.56-5.656-30.935-0.846-56.29
				c0.943-4.944,2.597-11.677,7.541-13.678c5.194-2.097,11.504,2.212,15.737,5.348C247.245,61.046,261.365,78.264,266.868,85.42z"/>
			<path fill="#E7B37A" d="M260.898,93.869h-0.624c-0.013,0.013-0.04,0.027-0.053,0.04c-12.661,8.662-24.818,27.568-34.37,45.769
				c-2.83-7.094-4.437-15.584-6.656-27.355c-0.598-3.149-3.906-21.363-0.585-38.874c0.651-3.414,1.794-8.064,5.208-9.446
				c3.587-1.448,7.945,1.528,10.868,3.693C247.347,77.036,257.099,88.927,260.898,93.869z"/>
		</g>
		<path fill="#C48C43" d="M299.724,172.698l-53.295,22.127c-6.543-3.43-16.016-9.473-24.785-19.969
			c-5.452-6.52-9.314-13.199-12.335-20.832c16.334-31.123,37.12-63.449,58.77-78.261c0.023-0.023,0.068-0.045,0.091-0.068h1.068
			c1.931,2.522,2.953,3.976,2.953,3.976s28.056,39.914,30.464,60.519C304.313,154.252,301.882,165.633,299.724,172.698z"/>
		<path fill="#C48C43" d="M488.278,107.25c-3.635,19.219-6.315,33.326-10.768,45.139c-16.675-30.85-37.506-63.131-57.452-76.694
			h-3.112c6.497-8.451,23.172-28.783,44.821-44.753c4.998-3.703,12.449-8.792,18.605-6.315c5.816,2.363,7.792,10.314,8.882,16.152
			C494.934,70.72,489.277,101.866,488.278,107.25z"/>
		<g>
			<path display="none" fill="#7C4A21" d="M419.336,85.42h0.904c0.019,0.019,0.058,0.038,0.077,0.058
				c18.334,12.543,35.936,39.919,49.769,66.275c4.098-10.273,6.426-22.566,9.638-39.611c0.866-4.56,5.656-30.935,0.846-56.29
				c-0.943-4.944-2.597-11.677-7.541-13.678c-5.194-2.097-11.504,2.212-15.737,5.348C438.959,61.046,424.838,78.264,419.336,85.42z"
				/>
			<path fill="#E7B37A" d="M425.305,93.869h0.624c0.013,0.013,0.04,0.027,0.053,0.04c12.661,8.662,24.818,27.568,34.37,45.769
				c2.83-7.094,4.437-15.584,6.656-27.355c0.598-3.149,3.906-21.363,0.585-38.874c-0.651-3.414-1.794-8.064-5.208-9.446
				c-3.587-1.448-7.945,1.528-10.868,3.693C438.857,77.036,429.105,88.927,425.305,93.869z"/>
		</g>
		<path fill="#C48C43" d="M477.51,152.389c-3.112,8.314-7.133,15.47-12.972,22.467c-8.769,10.495-18.242,16.538-24.785,19.969
			l-53.295-22.127c-2.135-7.065-4.566-18.447-2.93-32.508c2.408-20.605,12.063-34.349,30.464-60.519c0,0,1.022-1.454,2.953-3.976
			h3.112C440.003,89.258,460.835,121.539,477.51,152.389z"/>
	</g>
	<path fill="#EDDBC8" d="M344.477,364.455c-135.781,0.248-167.586-138.825-166.381-140.666
		c16.629-19.809,38.074-34.28,55.294-36.779h0.023c7.974-1.181,15.016,0.227,20.287,4.839c0.772,0.659,1.499,1.409,2.181,2.226
		c32.645,38.574,54.113,31.759,67.47,22.172c13.653-9.769,18.855-22.422,18.855,7.36c0,3.112,0.182,6.429,0.522,9.927v0.023
		c0.341,3.657,0.863,7.497,1.545,11.518c0.659-3.998,1.159-7.838,1.522-11.472c0.341-3.521,0.522-6.861,0.522-9.996
		c0-29.964,5.27-16.97,19.105-7.179c13.381,9.496,34.78,15.97,67.221-22.354c15.277-18.055,78.193,29.283,78.193,29.283
		S481.303,364.205,344.477,364.455z"/>
	<path fill="#3D2C1A" d="M349.821,235.696l28.021-33.893c3.375-4.082,0.471-10.249-4.825-10.249h-56.041
		c-5.296,0-8.2,6.167-4.825,10.249l28.021,33.893C342.675,238.724,347.317,238.724,349.821,235.696z"/>
	<g>
		<g>
			<path fill="#3D2C1A" d="M449.882,240.275c0,0,1.894,0.968,1.745,2.036c-3.412,24.519-60.235,60.767-106.628,60.767
				c-47.684,0-109.043-38.165-109.043-62.791l1.181-0.023c0.931,18.015,45.042,40.149,66.971,34.667
				c20.446-5.111,36.529-20.173,40.891-35.121c4.362,14.948,27.829,32.849,47.706,32.849c22.028,0,52.368-14,55.455-31.039"/>
		</g>
		<path fill="#F1B8BD" d="M349.029,242.913c-1.315-0.213-2.654-0.353-4.029-0.353c-1.375,0-2.714,0.14-4.029,0.353
			c1.757,8.734-16.417,22.364-20.96,24.636v27.261c0,13.812,11.177,24.989,24.989,24.989s24.989-11.177,24.989-24.989v-27.261
			C369.989,267.548,349.543,251.646,349.029,242.913z"/>
		
			<line fill="none" stroke="#E9848A" stroke-width="3" stroke-linecap="round" stroke-miterlimit="10" x1="345" y1="242.559" x2="345" y2="301.624"/>
	</g>
	<g>
		<path fill="#040000" d="M315.467,171.108c0,0-10.408,11.359-20.446,11.359s-18.174-13.63-18.174-13.63s8.137-13.63,18.174-13.63
			S315.467,171.108,315.467,171.108z"/>
		<path fill="#6C513E" d="M296.157,180.154c-0.363,0.021-0.75,0.041-1.136,0.041c-7.519,0-13.63-5.08-13.63-11.359
			c0-6.278,6.111-11.359,13.63-11.359c0.386,0,0.772,0.021,1.136,0.041c-6.997,0.475-12.495,5.37-12.495,11.317
			S289.16,179.679,296.157,180.154z"/>
		
			<ellipse transform="matrix(0.2085 -0.978 0.978 0.2085 76.2711 421.9584)" fill="#FFFFFF" cx="298.834" cy="163.857" rx="5.992" ry="6.67"/>
	</g>
	<g>
		<path fill="#040000" d="M374.532,171.108c0,0,10.408,11.359,20.446,11.359c10.037,0,18.174-13.63,18.174-13.63
			s-8.137-13.63-18.174-13.63C384.94,155.206,374.532,171.108,374.532,171.108z"/>
		<path fill="#6C513E" d="M392.706,180.154c0.363,0.021,0.75,0.041,1.136,0.041c7.519,0,13.63-5.08,13.63-11.359
			c0-6.278-6.111-11.359-13.63-11.359c-0.386,0-0.772,0.021-1.136,0.041c6.997,0.475,12.495,5.37,12.495,11.317
			S399.703,179.679,392.706,180.154z"/>
		
			<ellipse transform="matrix(0.2085 -0.978 0.978 0.2085 149.9919 513.0523)" fill="#FFFFFF" cx="391.975" cy="163.857" rx="5.992" ry="6.67"/>
	</g>
	
		<line fill="none" stroke="#EDDBC8" stroke-width="7" stroke-linecap="round" stroke-linejoin="round" stroke-miterlimit="10" x1="307.594" y1="127.47" x2="293.808" y2="128.421"/>
	
		<line fill="none" stroke="#EDDBC8" stroke-width="7" stroke-linecap="round" stroke-linejoin="round" stroke-miterlimit="10" x1="382.405" y1="127.47" x2="396.191" y2="128.421"/>
	<path fill="none" stroke="#3D2C1A" stroke-width="3" stroke-linecap="round" stroke-miterlimit="10" d="M452.907,231.309
		c0,23.838-23.902,43.163-53.386,43.163c-29.484,0-53.386-19.325-53.386-43.163"/>
	<path fill="none" stroke="#3D2C1A" stroke-width="3" stroke-linecap="round" stroke-miterlimit="10" d="M343.864,231.309
		c0,23.838-23.902,43.163-53.386,43.163c-29.484,0-53.386-19.325-53.386-43.163"/>
	<path opacity="0.06" fill="#070404" d="M233.685,156.342c0-36.441,5.787-71.183,16.25-102.882
		c-7.213-7.415-15.867-15.398-25.519-22.518c-4.998-3.703-12.449-8.792-18.583-6.315c-5.838,2.363-7.792,10.314-8.905,16.152
		c-5.679,29.941-0.023,61.087,1,66.471c3.794,20.128,6.543,34.644,11.381,46.775c-0.205,0.386-0.409,0.772-0.613,1.159
		c0,0.023,0,0.023,0,0.023c-15.448,29.669-30.964,68.765-30.964,68.765s0.114,0.114,0.364,0.318
		c0.657,8.415,28.338,116.219,130.882,136.78C262.902,311.694,233.685,238.301,233.685,156.342z"/>
</g>
<g id="glasses1のコピー">
	
		<line display="none" fill="none" stroke="#5D5727" stroke-width="4" stroke-miterlimit="10" x1="326" y1="284.883" x2="342" y2="284.883"/>
	<circle display="none" fill="none" stroke="#5E5827" stroke-width="4" stroke-miterlimit="10" cx="313" cy="283.883" r="12"/>
	<circle fill="none" stroke="#5E5827" stroke-width="4" stroke-miterlimit="10" cx="396.113" cy="172.244" r="32.94"/>
	<circle fill="none" stroke="#5D5727" stroke-width="2" stroke-miterlimit="10" cx="434.625" cy="173.38" r="2.272"/>
	
		<line fill="none" stroke="#5D5727" stroke-width="2" stroke-linecap="round" stroke-linejoin="round" stroke-miterlimit="10" x1="434.625" y1="175.652" x2="434.625" y2="250.619"/>
</g>
<g id="clothes">
	<g>
		<path fill="#1C3F97" d="M519.923,266.521"/>
		<path fill="#745A40" d="M518.787,706.101V408.504c0,0-4.543-59.065-86.326-81.782l-88.597,65.88v331.673
			C343.864,724.274,466.537,726.546,518.787,706.101z"/>
		<path display="none" fill="#5D4936" d="M515.379,368.749c0,0-22.717-52.25-84.054-49.978l-5.679,14.766
			c0,0,45.435,2.272,74.967,52.25L515.379,368.749z"/>
		<polygon fill="#806444" points="519.923,291.51 452.907,285.83 342.728,393.738 423.374,358.526 		"/>
		<polygon fill="#806444" points="403.831,333.736 451.771,353.373 342.728,393.738 		"/>
		
			<line fill="#27272F" stroke="#4E3A1F" stroke-width="2" stroke-linecap="round" stroke-miterlimit="10" x1="472.216" y1="396.009" x2="472.216" y2="455.074"/>
		
			<ellipse transform="matrix(0.1754 -0.9845 0.9845 0.1754 -103.2643 689.1793)" fill="#4E3A1F" cx="359.766" cy="406.232" rx="10.223" ry="10.223"/>
		<path fill="#1C3F97" d="M167.805,266.521"/>
		<path fill="#745A40" d="M168.94,706.101V408.504c0,0,4.543-59.065,86.326-81.782l88.597,65.88v331.673
			C343.864,724.274,221.19,726.546,168.94,706.101z"/>
		<path display="none" fill="#5D4936" d="M172.348,368.749c0,0,22.717-52.25,84.054-49.978l5.679,14.766
			c0,0-45.435,2.272-74.967,52.25L172.348,368.749z"/>
		<polygon fill="#806444" points="167.805,291.51 234.821,285.83 345,393.738 264.353,358.526 		"/>
		<polygon fill="#806444" points="283.896,333.736 235.956,353.373 345,393.738 		"/>
		
			<line fill="#27272F" stroke="#4E3A1F" stroke-width="2" stroke-linecap="round" stroke-miterlimit="10" x1="215.511" y1="396.009" x2="215.511" y2="455.074"/>
		
			<ellipse transform="matrix(0.9845 -0.1754 0.1754 0.9845 -66.16 63.812)" display="none" fill="#4E3A1F" cx="327.962" cy="406.232" rx="10.223" ry="10.223"/>
	</g>
</g>
<g id="hands">
	<path fill="#D9D9D9" d="M345.289,400.808c0,0-58.068-84.293-345.289-24.976l76.8,87.279L345.289,400.808z"/>
	<path fill="#D9D9D9" d="M345.289,400.808c0,0,58.069-84.293,345.289-24.976l-76.8,87.279L345.289,400.808z"/>
	<path fill="#ECECEB" d="M345.289,400.808c0,0-139.24-83.044-335.299,7.493c0,0,106.147,86.166,124.879,162.966
		c3.68,15.086,3.325,26.17,1.249,39.961c-8.742,58.069-13.737,105.378-13.737,105.378s124.879-49.182,222.908,9.51V400.808z"/>
	<path fill="#F5F5F5" d="M345.289,400.808c0,0,139.24-83.044,335.299,7.493c0,0-106.147,86.166-124.878,162.966
		c-3.68,15.086-3.325,26.17-1.249,39.961c8.741,58.069,13.737,105.378,13.737,105.378s-124.878-49.182-222.908,9.51V400.808z"/>
	<path fill="#D9D9D9" d="M354.902,466.415v108.407c0,0,63.913-28.492,115.341-23.498V440.299
		C470.243,440.299,402.902,441.441,354.902,466.415z"/>
	<path fill="#D9D9D9" d="M354.902,605.186v98.28c0,0,11.754-9.269,32.907-11.278V591.466
		C387.809,591.466,375.163,593.908,354.902,605.186z"/>
	<path fill="#D9D9D9" d="M396.119,589.725v100.166c0,0,14.067-7.882,32.907-6.489V580.645
		C429.026,580.645,419.937,579.892,396.119,589.725z"/>
	<path fill="#D9D9D9" d="M595.132,460.838c0,0-43.353,72.619-45.615,111.442l-36.578-5.211l19.388-122.858
		C532.326,444.21,572.613,452.411,595.132,460.838z"/>
	<path fill="#EDDBC8" d="M566.901,541.317c0,0,18.006,10.281,16.302,33.294c-1.705,23.012-13.655,48.461-26.857,49.374
		c-13.202,0.913-21.768-12.69-25.987-30.623C527.661,581.893,530.144,516.546,566.901,541.317z"/>
	<path fill="#D9D9D9" d="M33.917,414.377c0,0,95.857,92.67,107.165,145.741l193.469,12.161V403.3
		C334.551,403.3,168.871,340.974,33.917,414.377z"/>
	<path fill="#EDDBC8" d="M123.677,541.317c0,0-18.006,10.281-16.302,33.294c1.705,23.012,13.655,48.461,26.857,49.374
		c13.202,0.913,21.768-12.69,25.987-30.623C162.917,581.893,160.434,516.546,123.677,541.317z"/>
</g>
<g id="hat_1_">
	<g>
		<path id="bottom_x5F_left_1_" fill="#5E5827" d="M260.639,84.994c0,0,16.641,30.261,88.754,30.261V84.994H260.639z"/>
		<path id="bottom_x5F_right_1_" fill="#AE9C5C" d="M349.393,84.994h88.754c0,0-16.641,30.261-88.754,30.261"/>
		<path id="left_1_" fill="#AE9C5C" d="M239.364,86.756c0,0,22.678-73.37,109.611-73.37v73.37H239.364z"/>
		<path id="right_1_" fill="#5E5827" d="M458.586,86.756c0,0-22.678-73.37-109.611-73.37v73.37H458.586z"/>
		<path fill="none" stroke="#5D5727" stroke-width="6" stroke-linecap="round" stroke-linejoin="round" stroke-miterlimit="10" d="
			M347.588,11.92c0,0-45.426-19.055-50.877-1.466C296.711,10.455,291.26,36.838,347.588,11.92z"/>
		<path fill="none" stroke="#AE9C5C" stroke-width="6" stroke-linecap="round" stroke-linejoin="round" stroke-miterlimit="10" d="
			M353.137,11.92c0,0,45.426-19.055,50.877-1.466C404.014,10.455,409.465,36.838,353.137,11.92z"/>
	</g>
	<g>
	</g>
	<g>
	</g>
	<g>
	</g>
	<g>
	</g>
	<g>
	</g>
	<g>
	</g>
	<g>
	</g>
	<g>
	</g>
	<g>
	</g>
	<g>
	</g>
	<g>
	</g>
	<g>
	</g>
	<g>
	</g>
	<g>
	</g>
	<g>
	</g>
</g>
</svg>
